<?xml version="1.0" encoding="UTF-8" standalone="no"?>
<!-- Generator: Adobe Illustrator 21.1.0, SVG Export Plug-In . SVG Version: 6.00 Build 0)  -->

<svg
   version="1.1"
   id="Layer_1"
   x="0px"
   y="0px"
   viewBox="0 0 245.05 59.516022"
   xml:space="preserve"
   width="245.05"
   height="59.516022"
   xmlns="http://www.w3.org/2000/svg"
   xmlns:svg="http://www.w3.org/2000/svg"><defs
   id="defs67" />
<style
   type="text/css"
   id="style2">
	.st0{fill:#61B1E1;}
	.st1{fill:#FFFFFF;}
	.st2{fill:none;stroke:#2D3E9A;stroke-width:0.216;stroke-miterlimit:2.6131;}
	.st3{fill:url(#SVGID_1_);}
	.st4{fill:url(#SVGID_2_);stroke:#2D3E9A;stroke-width:0.5;stroke-miterlimit:2.6131;}
</style>
<g
   id="g28"
   transform="translate(-0.45,-0.41042706)">
	<path
   class="st0"
   d="M 69.6,59.7 C 63.5,48.7 52,40.9 38.5,40.2 23.6,39.4 10.2,47.4 3.4,59.7 Z"
   id="path4" />
	<path
   class="st1"
   d="m 30.2,41.4 c 0.1,0.1 0.2,0.1 0.2,0.2 -0.1,0 -0.2,0 -0.3,0.1 0,0.1 0,0.2 0,0.4 0.1,0 0.1,0 0.2,0 0.3,0 0,-0.1 0.4,-0.1 0,0.1 -0.1,0.2 -0.1,0.3 0.2,0.2 0.5,0.3 0.7,0.5 0.3,-0.1 1,0.1 1,-0.3 0,-0.2 0,-0.2 -0.1,-0.3 -0.1,0 -0.2,0 -0.3,0.1 0,-0.1 0,-0.1 -0.1,-0.2 -0.1,0 -0.2,0 -0.3,0 0,0 0,-0.1 0,-0.1 0.2,0 0.6,-0.3 0.2,-0.4 0,0.1 0,0.1 0,0.2 -0.3,0 -0.6,0 -0.9,0 -0.1,-0.1 -0.3,-0.3 -0.5,-0.3 0.1,-0.2 -0.1,-0.1 -0.1,-0.1 z m 24.6,3.4 h -0.1 c 0,0.1 -0.1,0.3 -0.1,0.5 0.1,0 0.2,0.1 0.3,0.1 0.1,0.3 0,0.7 -0.3,0.8 0.3,0.3 0.8,0.9 1.3,1 -0.1,-0.1 -0.2,-0.3 0,-0.3 0.3,0 0.2,0.1 0.4,0.3 0.1,0 0.3,0 0.5,0 0.2,0.1 0.3,0.2 0.5,0.2 0,0 0,0 0.1,0 -0.1,0.1 -0.1,0.3 -0.2,0.4 0.3,0.1 0.6,0.2 0.8,0.3 0,0.1 0,0.3 0.1,0.4 -0.1,0 -0.1,0.1 -0.2,0.2 0,0 0,0 0,0.1 0.3,0.1 0.5,0.2 0.8,0.4 0,0 0,0 0,-0.1 0,0.1 0,0.2 0,0.3 -0.1,0.1 -0.2,0.2 -0.2,0.3 0.6,0.2 1.1,1.1 0.8,1.3 0,0 0,-0.1 0,-0.1 -0.6,0 -1.8,-0.5 -2.2,-0.7 C 56.5,50 55.8,49.4 55.6,48.8 55.5,48.7 55.4,48.6 55.3,48.5 54.9,47 54.3,47 54,45.8 c -0.2,0.1 -0.3,0.1 -0.2,0.4 0,0.1 0.1,0.2 0.1,0.3 0.1,0.1 0.2,0.2 0.3,0.3 0,0 -0.1,0 -0.1,0 0,0.1 0,0.1 0,0.2 -0.2,0 -0.4,-0.1 -0.6,-0.1 0,0 0,0 0,-0.1 -0.3,0.1 -0.4,0.4 -0.4,0.7 0.2,0.1 0.5,0.3 0.5,0.5 0,0.2 0,0.3 0,0.5 0,0 0.1,0.1 0.1,0.1 0.1,-0.1 0.2,-0.2 0.3,-0.3 0.1,0.1 0.2,0.1 0.2,0.3 0,0 -0.3,1 -0.5,1 0,0 0,0 -0.1,0 -0.2,0 -0.2,0 -0.4,0 -0.1,0 -0.2,0.1 -0.2,0.2 0,0.2 0.1,0.3 0.1,0.5 -0.4,0.1 -0.4,0.5 -0.8,0.7 -0.5,0.3 -0.6,0.2 -0.6,0.9 0,0.9 -0.2,1.9 -0.3,2.7 -0.1,0 -0.2,0.1 -0.3,0.1 0,0.3 0.3,0.1 0.7,0 0.1,0.1 0.1,0.2 0.2,0.3 0,-0.1 0,-0.1 0.1,-0.2 0.1,0.1 0.2,0.1 0.4,0.2 0,-0.1 0.1,-0.1 0.1,-0.2 0,-0.1 -0.1,-0.1 0,-0.3 0,-0.1 0.3,-0.2 0.4,-0.3 0.3,0 0.7,0 1,0 0,-0.2 0.1,-0.4 0.1,-0.5 0.8,0.1 0.8,0.7 1.3,0.9 0.2,0.1 1.4,0.6 1.7,0.6 0,0.1 0,0.1 0,0.2 -0.3,0.1 -0.6,0.1 -0.9,0.2 0.4,1 0.6,0.3 1.3,1 -0.1,0 -0.3,0.1 -0.4,0.1 -0.1,0.1 -0.1,0.3 -0.2,0.4 -0.3,0 -0.6,-0.5 -0.6,-0.7 -0.2,0 -0.3,0 -0.5,0 0,0 0.1,0 0.1,0 -0.2,-0.4 -0.3,-0.8 -0.5,-1.1 -0.3,0 -0.6,0 -0.8,0 0.3,0.4 0.6,0.9 0.9,1.3 0,0 0.1,0 0.1,0 -0.1,0.5 -0.3,0.9 -0.5,1.4 0.1,0 0.2,0 0.3,0 -0.1,0.1 -0.1,0.1 -0.2,0.3 -0.2,0.5 -0.5,0.9 -0.7,1.4 h -1.6 c 0.1,-0.4 0.2,-0.9 0.2,-1.3 -0.6,0.3 -0.3,0.2 -0.7,0.6 -0.2,0.2 -0.6,0.4 -0.7,0.6 -0.1,0 -0.2,0 -0.3,0 -0.2,0 -0.2,-0.3 -0.2,-0.5 -0.2,0 -0.3,0 -0.5,0 -0.1,0 -0.8,0.3 -0.8,0.3 0,0 0,0 -0.1,0 0,0 -0.7,-0.5 -0.9,-0.6 -0.3,-0.1 -0.3,-0.6 -0.8,-0.6 -0.2,0 -0.6,0.2 -1.1,0.2 -0.4,0.5 -0.6,0.4 -0.9,0.7 0.2,0 0.3,0.1 0.5,0.2 0,0 0,0 0,0.1 -0.1,0.1 -0.1,0.3 -0.2,0.4 H 27.3 v 0 c -0.3,-0.1 -0.5,-0.1 -0.8,-0.2 0,-0.1 0,-0.2 0,-0.3 0,-0.2 0.1,-0.1 0.1,-0.3 0,-0.1 0,-0.2 -0.1,-0.2 -0.4,0 -0.8,0 -1.3,0 -0.8,-0.1 -1.5,-0.2 -2.3,-0.3 0,0.1 0,0.3 0.1,0.4 -0.3,-0.1 -0.8,0.1 -0.9,0.4 0.1,0 0.3,0.1 0.4,0.1 0,0.1 -0.1,0.3 -0.1,0.4 H 22 c -0.1,0 -0.1,0 -0.2,0 0,0 0,0 0,-0.1 -0.1,0 -0.1,0 -0.2,0 -0.3,0 -0.5,-0.6 -0.6,-0.8 -0.1,0 -0.1,0.1 -0.2,0.1 -0.4,-0.3 -0.3,-0.2 -0.6,-0.2 -0.1,0 -0.2,0 -0.3,0 -0.1,-0.5 -0.3,-0.6 -0.6,-1 -0.2,-0.3 -0.7,-0.4 -1,-0.7 -0.3,0.1 -0.4,0 -0.6,0 -0.2,0.1 -0.1,0.2 -0.5,0.1 -0.1,0 -0.2,0 -0.2,0 0,-0.1 0,-0.3 0,-0.4 -0.1,0.1 -0.3,0.1 -0.4,0.2 -0.1,0.2 -0.2,0.5 -0.3,0.7 -0.1,0 -0.1,0 -0.2,0 0.2,0.1 0.6,0.3 0.6,0.6 0,0.3 0,0.6 0,0.8 -0.5,0 -0.9,0 -1.4,0 0.1,0.2 0.1,0.1 0.2,0.3 0.1,0.3 0,0.3 -0.1,0.5 h -1 c -0.1,-0.1 -0.2,-0.2 -0.3,-0.4 0,0 0.1,-0.1 0,-0.2 -0.1,-0.3 -0.8,-0.6 -1.4,-1.5 0,0 0,0 0,0 -0.3,-0.3 -0.6,-0.6 -0.9,-0.9 -0.3,-0.7 -0.5,-1.3 -0.8,-2 0,0 0.1,0 0.1,0 0.1,0.1 0.2,0.2 0.3,0.4 0,0 0.3,-0.1 0.3,-0.1 0.2,0 0.1,0 0.3,0.1 -0.1,-0.2 -0.1,-0.1 -0.1,-0.3 0,-0.1 0,0 0,-0.1 0.2,0.1 0.5,0.2 0.7,0.4 0,0 0,0 0,-0.1 -0.2,-0.1 -0.3,-0.2 -0.5,-0.3 0.1,0 0.2,-0.1 0.3,-0.1 0.1,0 0.3,0.1 0.5,0.2 0.1,0.1 0.2,0.1 0.2,0.2 0.3,-0.1 0.5,-0.3 0.8,-0.5 -0.1,-0.1 -0.6,-0.9 -0.6,-0.9 0,-0.1 0,-0.2 0,-0.3 0,0 0,0 -0.1,0 -0.2,-0.2 -0.3,-0.5 -0.5,-0.7 0.1,0 0.2,0 0.2,-0.2 0,-0.1 -0.1,-0.1 -0.1,-0.3 0,-0.1 0,-0.1 0,-0.2 0.1,0 0.3,-0.1 0.4,-0.1 0,-0.1 0,-0.2 0,-0.3 -0.2,-0.1 -0.4,-0.2 -0.5,-0.3 0,-0.1 -0.1,-0.1 0,-0.3 0,-0.2 0.2,-0.1 0.4,-0.5 0.1,0.1 0.2,0.2 0.4,0.3 0,0 0,0 0,0 0.1,0 0.1,0 0.1,-0.1 0.1,-0.3 0.2,-0.6 0.3,-0.8 0.2,-0.1 0.4,-0.1 0.6,-0.2 0,-0.1 -0.1,-0.2 -0.1,-0.4 -0.5,-0.2 0.1,-1.1 0.6,-1.1 0,-0.1 0,-0.2 0.1,-0.3 0,0 0,0 0.1,0.1 0.2,-0.1 0.4,-0.3 0.6,-0.5 0.1,0 0.3,0 0.4,0 0.1,0 0.2,-0.1 0.4,-0.1 0.1,0.1 0.3,0.1 0.4,0.2 0.1,-0.2 0.2,-0.4 0.2,-0.5 0.2,0 0.4,0.1 0.7,0.2 0.1,0 0.1,0 0.2,0 0.4,0 0.7,0 1,-0.1 0,-0.2 0.1,-0.3 0.1,-0.5 0.4,-0.1 0.6,-0.5 0.9,-0.8 0.3,-0.3 0.6,0 1,-0.7 0.2,0 0.4,0 0.6,0 0.2,-0.3 0.3,-0.5 0.5,-0.8 0.1,0 0.2,0 0.4,0 0.4,0 0.9,0.3 0.9,0.8 -0.1,0 -0.2,0 -0.3,0 0,0 0,0.1 0,0.1 0.1,0 0.2,0 0.3,0 0,0.5 0.1,0.4 0.2,0.6 0,0 0,0.8 0,0.8 0,0.7 -0.1,1.1 -1,1 0,0 0,0 -0.1,0 -0.6,-0.1 -0.7,-0.9 -0.8,-1.2 -0.2,0.7 -0.8,0.5 -0.9,1 0,0.2 -0.1,0.3 -0.1,0.5 0.1,0 0.2,0 0.3,0 0,-0.3 -0.1,-0.1 -0.1,-0.4 0,-0.2 0.2,-0.2 0.4,-0.3 0,0.1 0.1,0.2 0.1,0.2 0,0.2 0.1,0.4 0.2,0.7 0,0 0.1,0 0.1,0 0,-0.1 0.1,-0.2 0.1,-0.3 0,0 0,0 0.1,0 0,0 0.1,-0.1 0.1,-0.2 0.2,0 0.3,0 0.5,0 0.2,0 0.3,0 0.5,0 0.1,0.1 0.2,0.2 0.2,0.2 0,0.1 0,0.1 0,0.2 0,0 0.1,0 0.1,0 0,-0.1 0,-0.1 0,-0.2 0.1,0 0.2,0 0.2,-0.1 0.1,0.1 0.2,0.1 0.3,0.2 0.2,-0.9 0.6,0.3 0.8,-0.8 0,0 0,0 0.1,0 0,0.2 -0.1,0.3 -0.1,0.5 -0.2,0 -0.4,0.1 -0.7,0.1 0.1,0.1 0.2,0.2 0.3,0.3 0,0 0,0 -0.1,0 -0.1,0 -0.2,0 -0.2,0.1 0.4,0 0.4,0 0.4,-0.3 0.1,0 0.2,0 0.3,0 0.3,0 0.2,0.1 0.3,0.3 0.1,-0.3 0.1,-0.4 0.5,-0.4 0,0 0,-0.1 0,-0.1 -0.1,0 -0.2,0 -0.2,0 0,0 -0.1,0 -0.1,0 0.2,-0.2 0.3,-0.3 0.5,-0.5 0,0 0,0 0,0.1 0.1,0.1 0.2,0.3 0.3,0.4 0,0.1 -0.1,0.1 -0.1,0.2 -0.2,0.1 -0.3,0.1 -0.5,0.2 0.1,0.1 0.2,0.2 0.4,0.3 0,0 0.1,0 0.2,0 0.1,-0.1 0,-0.2 0.3,-0.2 0.1,0 0.2,0 0.3,0 0.4,0 0.2,0.3 0.1,0.5 0.3,0.1 0.7,0.2 1,0.3 -0.1,0.1 -0.2,0.3 -0.3,0.4 0,0 0.1,0 0.2,0 0.1,-0.3 0.1,-0.3 0.3,-0.2 0,-0.1 0,-0.2 0,-0.3 0,-0.2 0.1,-0.2 0.1,-0.3 -0.1,-0.1 -0.1,-0.3 -0.2,-0.4 0.1,0 0.2,-0.1 0.2,-0.1 0.2,0.3 0.4,1 1,1.1 0,0.3 0.3,0.9 0.6,1 l 0.1,-0.1 c 0,-0.5 -0.3,-0.5 -0.3,-0.7 0,-0.1 0.4,-0.4 0.5,-0.6 0,-0.1 0,-0.2 -0.1,-0.3 0.2,-0.2 0.8,-0.3 0.9,-0.7 0,0 0,-0.1 0.1,-0.2 0.2,-0.1 0.4,-0.2 0.7,-0.4 0,0.1 0.1,0.3 0.2,0.4 -0.1,0 -0.2,0 -0.3,0 0.1,0.1 0.3,0.1 0.4,0.2 0,0.1 0,0.2 0,0.3 -0.2,0.2 -0.3,0.4 -0.5,0.6 0,0.2 0.1,0.3 0,0.5 0,0.2 -0.1,0.1 -0.1,0.3 -0.1,0.2 -0.2,0.5 -0.4,0.7 0,0.1 0.2,0.6 0.2,0.7 0,0.4 -0.9,0.8 -1.2,1 0.9,0 0.8,-0.4 1.3,-0.6 0,-0.2 0,-0.4 0.1,-0.6 0.1,0 0.3,-0.1 0.4,-0.1 0.3,0 0.3,0.3 0.5,0.5 -0.1,-0.2 -0.2,-0.4 -0.3,-0.6 -0.2,0 -0.2,0.1 -0.3,0 -0.1,0 -0.2,-0.1 -0.2,-0.2 0.1,-0.5 0.3,-1 0.4,-1.5 0,0 -0.1,0 -0.1,0 0.1,-0.4 0.3,0 0.5,-0.3 0,0 0.1,-0.4 0.2,-0.5 -0.1,-0.1 -0.1,-0.1 -0.2,-0.2 0.5,-0.2 0.4,0.5 0.2,0.7 0.1,0 0.2,0.1 0.3,0.1 0.2,-0.1 0.3,-0.1 0.5,-0.2 0.1,0.1 0.2,0.2 0.3,0.4 0.1,0.1 0.3,0.2 0.5,0.2 0,0 0,-0.1 0,-0.1 -0.2,-0.1 -0.3,-0.2 -0.5,-0.3 0.1,-0.1 0.2,-0.2 0.2,-0.3 0,-0.2 -0.1,-0.1 -0.1,-0.3 0,-0.2 0.1,-0.2 0.2,-0.3 1.2,0 1.1,0.3 1.2,-0.4 0,-0.5 1.4,-0.7 1.2,-1 0.1,0 0.3,0.1 0.4,0.1 0,0 0,-0.1 0,-0.2 0.1,0 0.2,0 0.3,0 0,0.1 0,0.1 0,0.2 0.5,-0.3 0,-0.4 0.6,-0.4 0,-0.1 0,-0.2 0,-0.4 0,-0.1 0.3,-0.6 0.4,-0.6 0.2,0 0.3,0.1 0.5,0.2 0,0.1 -0.1,0.1 -0.2,0.2 0.3,0 0.3,0 0.4,0.2 0.1,0 0.2,0.1 0.3,0.1 0.1,0 0.1,-0.1 0.2,-0.1 -0.1,0 -0.2,-0.1 -0.3,-0.2 0.1,0 0.2,0 0.4,-0.1 0.2,0.1 0.4,0.2 0.6,0.4 0.4,0.3 0,0.4 0.5,0.5 0,0.9 -0.5,0.7 -0.6,1.1 0.6,-0.1 1.2,-0.2 1.8,-0.3 0,0.1 0,0.1 0,0.2 0.3,0 0.6,-0.1 0.8,-0.1 0,-0.1 0,-0.2 0,-0.3 0,-0.2 -0.1,-0.2 -0.2,-0.3 0.2,0 0.4,0 0.5,0 0.1,-0.1 0.1,-0.1 0.3,-0.1 0.1,0 0.2,0 0.3,0 0.5,0 0.4,1 1.4,1 -0.1,-0.7 -0.8,-0.7 0.2,-0.6 0,-0.1 0.1,-0.2 0.1,-0.3 0.1,0 0.2,0 0.3,0 0.3,0 0,0 0.3,0 -0.1,-0.1 -0.1,-0.2 -0.2,-0.3 0.1,0 0.2,0 0.3,0 0,0 0,-0.1 0,-0.1 0,0 -0.1,0 -0.1,0 0,-0.1 0,-0.2 0,-0.3 -0.1,0 -0.2,0 -0.3,0.1 0,-0.4 0.1,-0.2 0.1,-0.3 0,-0.2 0,-0.1 -0.1,-0.2 0.2,-0.1 0.5,-0.3 0.7,-0.4 0.1,0 0.2,0 0.2,0.1 0,0 -0.1,-0.1 -0.1,-0.1 0.2,-0.1 0.4,-0.2 0.7,-0.4 0,0.1 0.1,0.1 0.1,0.2 0.3,0 0.6,-0.1 0.9,-0.1 0.2,-0.4 0,-1.6 1.2,-0.9 l 0.1,-0.1 c 0.3,0 0.3,0.2 0.6,0.2 -0.2,-0.2 -0.4,-0.4 -0.5,-0.6 0.1,-0.3 0.3,-0.3 0.3,-0.6 0,-0.4 -0.4,-0.7 0.2,-0.4 0.1,0 0.2,-0.1 0.3,-0.2 1.2,0.7 3.1,1.6 5,2.6 z m -26.9,2.3 c 0.2,-0.1 0.3,-0.2 0.5,-0.3 0.2,-0.1 0.2,0 0.5,-0.2 0.4,-0.4 0.4,-0.2 0.9,-0.5 0.4,-0.3 1.9,0.1 2,-0.6 0,-0.1 0,-0.1 0,-0.2 -0.4,-0.1 -0.1,-0.1 -0.4,-0.2 -0.3,0 -0.2,0.2 -0.5,0.2 -0.1,0 -0.1,0 -0.2,0 -0.3,0 -0.2,-0.1 -0.5,-0.2 0,0 0,0.1 0,0.1 -0.1,0 -0.2,0 -0.4,0 -0.2,0 -0.5,0.2 -0.7,0.1 -0.1,0.6 -0.9,0.4 -0.9,0.9 -0.1,0 -0.2,0 -0.3,0.1 0,0 0,0.1 0,0.1 -0.1,0 -0.3,-0.1 -0.4,-0.1 0,0 0,0 0.1,0 -0.1,0.1 -0.2,0.3 -0.3,0.4 0,0 0,0 0,-0.1 -0.2,0 -0.3,0 -0.5,0.1 0,0 0,0 0,0.1 0.1,0.2 0.2,0.3 0.3,0.5 0,0 0,0 0.1,0 0,0 0,0.1 0,0.1 -0.1,0 -0.2,-0.1 -0.3,-0.1 0.1,0.9 0.2,0.5 0.5,1 0.3,-0.1 0.6,-0.1 0.6,-0.3 0,-0.2 0,-0.2 -0.1,-0.3 -0.2,-0.3 -0.1,-0.4 0,-0.6 z m 8.2,-4 c 0,0 -0.1,0 0,0 -0.2,-0.1 -0.3,-0.2 -0.4,-0.3 0,0 0,0 0,0 -0.4,0 -0.4,0.3 -0.6,0.6 0,0.1 0.1,0.1 0.1,0.2 -0.1,0 -0.1,0 -0.2,0 0,0.1 0,0.2 0,0.3 0.1,0 0.2,0 0.3,0 0.1,0.4 0.1,0.7 0.7,0.7 0.3,0 0.1,-0.7 0.1,-1.1 -0.1,0 -0.2,-0.1 -0.3,-0.1 0.1,0 0.2,-0.1 0.3,-0.3 z m 7.5,0.9 c 0.5,0 0.7,-0.2 0.8,-0.6 -0.1,-0.1 -0.1,-0.2 -0.3,-0.2 0,0 0,0 -0.1,0 -0.2,0 -0.4,0.2 -0.4,0.3 -0.1,0 -0.1,-0.1 -0.2,-0.1 0,0.1 0.1,0.2 0.1,0.3 -0.3,-0.1 -0.1,-0.1 -0.4,-0.1 0,0 -0.1,0 -0.1,0 -0.2,0 -0.5,0.1 -0.4,0.4 -0.1,0 -0.2,0 -0.4,-0.1 0,0.1 -0.1,0.2 -0.1,0.3 0.1,0.1 0.2,0.3 0.3,0.4 -0.1,0 -0.2,0 -0.4,-0.1 0,0.1 0,0.2 0,0.4 0.1,0 0.2,0 0.4,0 0.1,0.1 0.1,0.1 0.3,0.1 0.1,0 0.1,0 0.2,0 0.3,0 0.6,-0.8 0.7,-1 z"
   id="path6" />
	<path
   class="st2"
   d="m 9.9,59.5 v 0 c 0.9,-0.3 1.8,-0.6 2.7,-0.9 0.8,-2.1 1.6,-4.2 2.7,-6.2 -1.2,0.4 -2.3,0.9 -3.5,1.5 v 0 0 0 C 10.4,54.5 9.1,55.4 7.7,56.2 7.1,57.3 6.5,58.5 6,59.6 H 5.9 L 5.8,59.5 c 0.5,-1 0.9,-2 1.5,-3 -0.4,0.3 -0.8,0.6 -1.3,0.9 -0.6,0.4 -1.1,0.8 -1.7,1.2 v 0 0 L 4.2,58.5 c 0.1,-0.1 0.1,-0.2 0.2,-0.3 0.5,-0.3 1,-0.7 1.4,-1 C 6.4,56.8 7,56.4 7.6,56 7.7,55.5 8,55 8.3,54.5 8.8,53.6 9.3,52.7 9.9,51.8 9.6,52 9.3,52.2 9,52.3 H 8.9 L 8.8,52.2 C 8.9,52.1 9,52 9.1,51.9 c 0.4,-0.2 0.7,-0.4 1.1,-0.6 0.2,-0.4 0.5,-0.8 0.8,-1.2 0.1,-0.1 0.3,-0.3 0.5,-0.4 l 0.1,0.1 c -0.3,0.4 -0.5,0.8 -0.8,1.2 1.8,-1 3.6,-1.8 5.5,-2.6 0.7,-0.3 1.3,-0.5 2,-0.8 0.8,-1.1 1.7,-2.2 2.6,-3.2 -1.3,0.4 -2.6,0.8 -3.9,1.4 v 0 0 -0.1 c 0.3,-0.2 0.6,-0.3 0.8,-0.5 1.2,-0.4 2.3,-0.8 3.5,-1.2 0.3,-0.3 0.6,-0.7 1,-1 0.1,0 0.2,-0.1 0.4,-0.1 l 0.1,0.1 c -0.3,0.3 -0.6,0.6 -0.8,0.9 0.1,0 0.3,-0.1 0.4,-0.1 1.8,-0.5 3.7,-0.9 5.6,-1.1 1,-0.1 2,-0.3 3,-0.4 0.4,-0.6 0.9,-1.2 1.4,-1.8 h 0.2 l 0.1,0.1 c -0.4,0.5 -0.9,1.1 -1.3,1.7 4,-0.3 8.1,-0.2 12,0.3 C 43,42 42.7,41.4 42.3,40.8 l 0.1,-0.1 h 0.2 c 0.4,0.6 0.8,1.2 1.2,1.9 3.1,0.4 6.1,1.1 9.1,2 -0.1,-0.1 -0.2,-0.2 -0.3,-0.4 L 52.8,44 c 0.2,0.2 0.4,0.5 0.6,0.7 0.8,0.3 1.7,0.5 2.5,0.8 0.2,0.1 0.5,0.3 0.7,0.4 V 46 c -0.9,-0.3 -1.8,-0.7 -2.8,-0.9 0.8,1.1 1.6,2.1 2.2,3.2 2.4,0.9 4.7,2 7,3.2 -0.2,-0.3 -0.4,-0.6 -0.6,-1 l 0.1,-0.1 c 0.2,0.2 0.3,0.3 0.5,0.5 0.2,0.3 0.4,0.6 0.6,0.9 0.2,0.1 0.5,0.3 0.7,0.4 0.1,0.1 0.2,0.3 0.4,0.4 l -0.1,0.1 c -0.2,-0.1 -0.4,-0.2 -0.6,-0.4 0.6,0.9 1.1,1.9 1.6,2.8 0.2,0.5 0.5,0.9 0.7,1.4 1,0.7 2,1.4 2.9,2.1 0.1,0.1 0.2,0.3 0.2,0.4 l -0.1,0.1 c -0.8,-0.7 -1.8,-1.4 -2.7,-2.1 0.4,0.8 0.8,1.7 1.2,2.5 l -0.1,0.1 h -0.2 c -0.4,-1 -0.9,-1.9 -1.4,-3 -2.3,-1.5 -4.8,-2.8 -7.5,-3.9 0.8,1.9 1.5,3.8 2.1,5.7 0.9,0.3 1.9,0.7 2.8,1 l -0.1,0.1 H 63 c -0.7,-0.3 -1.4,-0.6 -2.2,-0.8 0.1,0.3 0.1,0.5 0.2,0.8 h -0.1 -0.2 c -0.1,-0.3 -0.2,-0.6 -0.3,-0.9 -3.8,-1.3 -7.9,-2.2 -12.3,-2.7 0.2,1.2 0.4,2.4 0.6,3.7 H 48.5 48.3 C 48.1,58.3 47.9,57.1 47.7,55.9 40.6,55 33,55 25.7,56 c -0.3,1.2 -0.5,2.3 -0.8,3.6 h -0.2 -0.2 c 0.2,-1.2 0.5,-2.4 0.7,-3.5 H 25 c -2.6,0.4 -5.2,0.8 -7.7,1.5 -1.6,0.4 -3.1,0.8 -4.6,1.3 -0.1,0.3 -0.2,0.5 -0.3,0.8 h -0.2 -0.1 c 0.1,-0.2 0.1,-0.4 0.2,-0.6 -0.7,0.2 -1.4,0.4 -2,0.7 L 9.9,59.5 Z m 3.1,-1 c 1.4,-0.4 2.9,-0.8 4.4,-1.2 2.5,-0.6 5.1,-1.1 7.7,-1.5 h 0.3 c 0.5,-2.3 1.2,-4.4 1.9,-6.3 -2.5,0.4 -5,0.9 -7.4,1.5 -1.4,0.4 -2.8,0.8 -4.2,1.3 -1.1,2 -2,4.1 -2.7,6.2 z m 12.8,-2.8 c 7.3,-0.9 14.8,-1 21.7,-0.1 -0.4,-2.2 -0.8,-4.3 -1.4,-6.1 -5.7,-0.9 -11.7,-1 -17.6,-0.3 -0.3,0 -0.6,0.1 -0.9,0.1 -0.6,2 -1.3,4.1 -1.8,6.4 z m 22,0 c 4.4,0.6 8.5,1.5 12.3,2.7 -0.6,-1.9 -1.3,-3.8 -2.1,-5.7 -3.6,-1.4 -7.4,-2.4 -11.5,-3 0.5,1.7 0.9,3.7 1.3,6 z M 8,55.6 c 1.2,-0.8 2.4,-1.5 3.6,-2.1 v 0 0 0 c 1.3,-0.6 2.5,-1.1 3.8,-1.6 0.2,-0.4 0.5,-0.8 0.7,-1.2 0.5,-0.9 1.1,-1.8 1.7,-2.7 -0.5,0.2 -1,0.4 -1.6,0.6 -2,0.8 -4,1.8 -6,2.8 -0.7,1.1 -1.3,2.2 -1.9,3.2 0.1,0.4 -0.1,0.7 -0.3,1 z m 8,-3.8 c 1.3,-0.4 2.5,-0.8 3.8,-1.2 2.5,-0.7 5,-1.2 7.6,-1.5 0.1,-0.3 0.2,-0.5 0.3,-0.8 0.4,-1.1 0.9,-2.1 1.3,-3 -1.7,0.2 -3.3,0.5 -4.9,0.9 -1.9,0.4 -3.8,1 -5.6,1.7 -0.7,1 -1.4,2 -2,3.1 -0.2,0.2 -0.4,0.5 -0.5,0.8 z M 27.8,49 c 0.2,0 0.5,-0.1 0.7,-0.1 5.9,-0.7 11.8,-0.6 17.5,0.2 -0.1,-0.3 -0.2,-0.7 -0.3,-1 -0.3,-0.9 -0.6,-1.8 -0.9,-2.7 -5.1,-0.8 -10.3,-0.9 -15.4,-0.3 -0.5,1 -1,2 -1.4,3.2 -0.1,0.3 -0.1,0.5 -0.2,0.7 z m 18.6,0.2 c 4,0.6 7.8,1.6 11.4,3 -0.1,-0.2 -0.2,-0.3 -0.2,-0.5 -0.5,-1.1 -1.1,-2.2 -1.8,-3.2 -3.5,-1.3 -7,-2.3 -10.5,-2.9 0.3,0.8 0.6,1.6 0.9,2.5 0,0.4 0.1,0.8 0.2,1.1 z m 11.8,3.2 c 2.7,1 5.2,2.3 7.4,3.8 -0.1,-0.3 -0.3,-0.6 -0.5,-0.9 -0.6,-1.1 -1.2,-2.1 -1.9,-3.2 -2.3,-1.3 -4.7,-2.4 -7,-3.3 0.6,1 1.1,1.9 1.6,2.9 0.1,0.2 0.3,0.4 0.4,0.7 z m -39.4,-5 c 1.7,-0.6 3.5,-1.1 5.2,-1.5 1.7,-0.4 3.5,-0.7 5.2,-1 0.5,-0.9 0.9,-1.7 1.5,-2.5 -0.9,0.1 -1.8,0.2 -2.8,0.3 -1.9,0.3 -3.7,0.7 -5.5,1.1 -0.3,0.1 -0.6,0.2 -0.9,0.3 -1,1.2 -1.9,2.2 -2.7,3.3 z m 10.8,-2.5 c 5,-0.6 10,-0.5 15,0.3 -0.4,-0.9 -0.7,-1.7 -1.1,-2.4 -4.1,-0.6 -8.3,-0.7 -12.4,-0.3 -0.5,0.7 -1,1.5 -1.5,2.4 z m 15.5,0.4 c 3.5,0.6 7,1.5 10.4,2.8 C 54.8,47 54.1,46 53.2,44.9 50.2,44 47.1,43.3 44,42.8 c 0.3,0.8 0.7,1.6 1.1,2.5 z"
   id="path8" />
	<linearGradient
   id="SVGID_1_"
   gradientUnits="userSpaceOnUse"
   x1="36.486198"
   y1="52.3116"
   x2="36.486198"
   y2="0.41819999">
		<stop
   offset="0"
   style="stop-color:#ED5342"
   id="stop10" />
		<stop
   offset="0.5"
   style="stop-color:#62C1ED"
   id="stop12" />
		<stop
   offset="1"
   style="stop-color:#FFFFFF"
   id="stop14" />
	</linearGradient>
	<path
   class="st3"
   d="m 16.5,26.8 v 0 l 0.3,1.2 v 0 c 0.1,0.4 0.2,0.8 0.3,1.1 0.6,2.2 -0.1,5.5 -0.9,7.7 L 22,42 21.4,42.4 c -0.4,0.2 -0.8,0.5 -1.2,0.7 -1.5,0.9 -3.1,1.7 -4.7,2.6 -2.1,1.1 -4.2,2.5 -6.1,4 -0.9,0.7 -1.8,1.4 -2.6,2.2 L 6.3,52.3 5.9,51.8 C 5.2,50.8 2.6,46.9 2.8,45.8 3,44.8 4,44.3 4.1,44 4.1,43.7 3.2,41.8 3.1,41.3 2.9,40.7 2.7,40 2.6,39.4 2.3,36.2 2,33 1.6,29.9 1.5,29 1.4,28.5 1,27.7 0.6,26.6 0.5,25.6 0.5,24.4 c 0,-1 0,-2.1 0.3,-3 C 0.8,20.8 1,20.4 1.2,20 1.3,19.9 1.3,19.7 1.3,19.6 1.4,18.3 2,14.4 2.6,13.3 3.2,12.3 3.8,11.2 4.4,10.2 4.8,9.6 5.2,9 5.6,8.4 5.9,8 6.2,7.4 6.5,7.2 7.2,6.6 7.8,5.9 8.4,5.2 v 0 0 C 8.7,4.9 9,4.6 9.2,4.3 9.5,3.8 10.9,2.8 11.4,2.5 12.1,2 12.9,1.5 13.6,0.9 L 14.1,0.5 14.4,1 c 0.7,1.5 0.9,3.5 0.5,5 -0.4,1.6 -2,3.1 -3.5,3.8 -0.3,1 -0.5,2.1 -0.8,3.1 -0.2,1 -1,1.9 -1.9,2.5 0.4,0.7 0.6,1.6 0.8,2.4 0.1,0.9 0,1.8 0,2.7 -0.1,0.8 -0.2,1.9 -0.1,2.7 0,0 0,0.2 0.1,0.3 0.1,-0.2 0.2,-0.6 0.2,-0.7 0.2,-2 0.2,-4.7 1,-6.6 0.2,-0.6 0.5,-1.1 0.8,-1.6 0.8,-1.2 2.3,-3 3.8,-1.8 0.1,0.1 0.2,0.2 0.3,0.3 0.7,0.9 0.8,2.1 0.8,3.1 0,1.4 -0.2,2.8 -0.4,4.2 -0.1,2.5 0.1,4.4 0.5,6.4 z m 1.3,1.4 0.4,1.2 v 0 c 0.7,0.1 1.3,0.1 2,0 0.2,0 0.3,0 0.5,-0.1 -0.1,1.2 -0.1,2.4 -0.1,3.6 0,1.5 0.1,5.9 1.3,6.8 0.2,0.2 0.5,0.3 0.7,0.3 1.7,0 2.1,-3.3 2.2,-4.4 0.1,-1.3 0.3,-2.7 0.6,-4 0,-0.3 0.2,-1 0.4,-1.5 0.3,0.6 0.7,1.5 0.8,1.8 0.2,0.5 0.4,1.1 0.5,1.6 0.1,0.6 0.2,1.3 0.3,2 0.1,0.8 0.2,2.9 0.7,3.5 0.2,0.2 0.4,0.3 0.7,0.4 1.8,0.4 2,-3.2 2,-4.2 0,-0.2 0,-0.5 0,-0.8 0.2,0.1 0.4,0.2 0.6,0.3 0,0 0.1,0 0.1,0 -0.1,0.3 -0.4,0.8 -0.5,1 -0.4,0.7 -0.5,1.9 -0.5,2.7 v 0.1 0.1 c 0.2,0.6 0.9,1 1.6,0.9 1.1,-0.2 1.5,-2.3 2.1,-3.1 0,-0.1 0.1,-0.2 0.2,-0.3 0.1,0.1 0.1,0.2 0.2,0.2 0.2,0.3 0.6,1.1 0.7,1.5 0.2,0.5 0.4,1.1 0.7,1.6 0.2,0.3 0.5,0.6 0.8,0.6 0.8,-0.1 1,-1.2 1,-1.8 0,-2.7 0,-2.3 0,-3.3 0.2,0 0.3,0 0.5,-0.1 -0.1,0.7 -0.1,1.4 -0.1,2.1 0,0.6 0,1.2 0,1.8 0,0.4 0.1,0.9 0.5,1.1 0.2,0.2 0.5,0.2 0.8,0.2 0.7,-0.1 1.2,-1.3 1.5,-1.9 0.5,-1.1 0.9,-2.2 1.4,-3.4 0.5,-1.2 0.9,-2.4 1.4,-3.6 0.4,-1 0.8,-2.1 1.3,-3.1 0.2,-0.5 0.5,-1.1 0.9,-1.4 0.1,-0.1 0.3,-0.2 0.5,-0.2 0.4,0 1,0.9 1.2,1.3 0.3,0.5 0.6,1.3 0.8,1.9 0.3,1 0.6,2 0.9,3 0.2,0.9 0.5,1.9 0.7,2.8 0.1,0.7 0.3,1.4 0.4,2 0.1,0.8 0.3,2.4 1.3,2.5 0.5,0.1 1,-0.3 1.3,-0.7 0.8,-0.9 0.8,-5.3 0.9,-6.5 0,-1.1 0,-2.2 0,-3.3 0,-0.8 -0.1,-1.7 -0.3,-2.5 -0.1,-0.7 -0.4,-1.4 -0.7,-2.1 0,0 0,0 0.1,0 0.5,0.2 0.9,0 1.3,-0.3 0.4,-0.4 0.7,-1 0.8,-1.6 0.7,-2.8 1,-7.8 -0.3,-10.4 -1.1,-2.2 -4,-3.4 -6.2,-3.9 0,-0.1 0.1,-0.2 0.1,-0.3 0.7,-0.8 1.1,-1.8 1.1,-2.8 0,-2.3 -1.8,-4.2 -4.1,-4.2 -2.3,0 -4.1,1.9 -4.1,4.2 0,0.8 0.2,1.7 0.7,2.4 0.2,0.2 0.4,0.8 0,0.9 -0.8,0.3 -1.5,0.8 -2,1.5 -1.5,1.8 -1.3,4.1 -2.2,6.2 -0.6,1.4 -1.3,3.5 -2.3,4.7 -0.1,0.1 -0.2,0.2 -0.3,0.3 -0.3,-0.6 -0.7,-1.2 -1.2,-1.7 -1.2,-1.2 -1.5,-2 -1.9,-3.6 -0.2,-0.8 -0.6,-1.6 -1,-2.3 -0.4,-0.6 -1.7,-2.7 -2.3,-3 -0.3,-0.1 -0.6,-0.3 -0.9,-0.4 0,0 -0.1,0 -0.1,0 0,-0.1 0.2,-0.4 0.2,-0.4 0.7,-0.7 1.1,-1.7 1.1,-2.7 0,-2 -1.6,-3.8 -3.7,-3.8 -2.1,0 -3.8,1.5 -3.8,3.6 0,1 0.4,1.9 1,2.6 v 0 c -2.2,0.6 -3.3,1.8 -4.3,3.9 -1.2,2.5 -1.2,5.4 -0.8,8.1 0.2,1 0.9,2.6 1.5,3.6 L 17.9,28 Z M 52,23 c 0,-0.1 -0.1,-0.2 -0.2,-0.4 -0.6,-1.2 -1.4,-2.9 -1.6,-4.3 0,-0.3 -0.2,-1.2 -0.1,-1.8 0.1,0.2 0.2,0.3 0.4,0.5 0.7,0.8 0.9,1.3 1.1,2.4 0.2,0.9 0.3,1.8 0.4,2.8 -0.1,0.2 0,0.5 0,0.8 z m -12.9,7.7 c -0.1,-0.8 -0.4,-1.6 -0.8,-2.2 -0.2,-0.3 -0.6,-0.5 -1,-0.7 0.4,-0.5 0.6,-1.1 0.6,-1.7 0,-0.8 -0.3,-1.5 -0.8,-2 0.4,-0.2 0.9,-0.5 1.2,-0.8 0.6,-0.5 1.3,-1.2 1.9,-1.8 0.3,-0.3 0.5,-0.5 0.8,-0.8 0,0.4 -0.1,0.8 -0.1,1.2 -0.1,1.3 -0.5,2.9 -0.7,4.2 -0.3,1.4 -0.6,2.8 -0.9,4.2 -0.1,0.2 -0.1,0.3 -0.2,0.4 z m -8.2,-1.2 c 0,-0.2 0,-0.4 0,-0.6 l 0.4,-0.3 c 0.8,-0.7 0.6,-0.8 0.3,-1.7 0,-0.1 0,-0.7 0,-0.8 0,-0.6 0,-1.1 -0.2,-1.6 -0.3,-1 -0.6,-2.1 -0.8,-3.1 0.1,0.1 0.2,0.3 0.3,0.4 0.6,0.8 1.3,1.6 2.1,2.2 -0.6,0.5 -1,1.3 -1,2.1 0,0.7 0.3,1.4 0.8,1.9 -0.9,0.4 -1.5,0.9 -1.9,1.5 z m 25.6,-2.7 c 0.4,-2 0.6,-3.9 0.3,-6.2 -0.1,-1.4 -0.4,-2.8 -0.4,-4.2 0,-1.1 0.1,-2.3 0.8,-3.1 0.1,-0.1 0.2,-0.2 0.3,-0.3 1.5,-1.3 3.1,0.6 3.8,1.8 0.3,0.5 0.6,1 0.8,1.6 0.8,1.8 0.8,4.6 1,6.6 0,0.2 0.1,0.5 0.2,0.7 0,-0.1 0.1,-0.2 0.1,-0.3 0.2,-0.8 0,-1.9 -0.1,-2.7 -0.1,-0.9 -0.2,-1.8 0,-2.7 0.1,-0.7 0.4,-1.6 0.8,-2.4 C 63.3,15 62.5,14 62.2,13.1 62,12.1 61.7,11 61.4,10 59.9,9.3 58.4,7.8 57.9,6.2 57.5,4.7 57.7,2.6 58.4,1.2 L 58.7,0.6 59.2,1 c 0.7,0.5 1.5,1 2.2,1.6 0.5,0.4 1.9,1.3 2.2,1.8 0.2,0.3 0.5,0.7 0.8,0.9 v 0 0 c 0.6,0.7 1.2,1.4 1.9,2 0.3,0.3 0.7,0.8 0.9,1.2 0.4,0.6 0.8,1.2 1.2,1.8 0.6,1 1.3,2.1 1.8,3.1 0.6,1.1 1.1,5 1.3,6.3 0,0.2 0,0.3 0.1,0.4 0.2,0.5 0.4,0.8 0.5,1.3 0.3,0.9 0.3,2.1 0.3,3 0,1.2 -0.1,2.2 -0.5,3.3 -0.3,0.8 -0.5,1.4 -0.6,2.2 -0.4,3.2 -0.7,6.4 -1,9.5 -0.1,0.7 -0.3,1.3 -0.5,1.9 -0.2,0.4 -1,2.3 -1,2.7 0,0.3 1,0.8 1.1,1.8 0.1,1.1 -2.4,4.9 -3.1,6 L 66.5,52.3 66,51.9 C 65.2,51.1 64.3,50.4 63.4,49.7 61.5,48.2 59.5,46.8 57.3,45.7 55.7,44.9 54.2,44 52.6,43.1 52.2,42.9 51.8,42.7 51.4,42.4 L 51,42 56.9,36.8 C 56.1,34.6 55.4,31.3 56,29.1 56.1,28.7 56.2,28.3 56.3,28 v 0 z"
   id="path17"
   style="fill:url(#SVGID_1_)" />
	<linearGradient
   id="SVGID_2_"
   gradientUnits="userSpaceOnUse"
   x1="36.499599"
   y1="51.887501"
   x2="36.499599"
   y2="0.82590002">
		<stop
   offset="0.2"
   style="stop-color:#ED5342"
   id="stop19" />
		<stop
   offset="0.6"
   style="stop-color:#62C1ED"
   id="stop21" />
		<stop
   offset="0.8"
   style="stop-color:#FFFFFF"
   id="stop23" />
	</linearGradient>
	<path
   class="st4"
   d="m 66.3,51.7 c 0,0 -4.1,-3.8 -8.7,-6.2 C 52.9,43 51.8,42.3 51.8,42.3 L 51.4,42 51.7,41.8 57.2,37 c -0.3,-0.9 -1.7,-4.9 -1,-7.7 0.4,-1.5 0.7,-2.9 0.9,-4.3 0.2,-1.4 0.2,-2.8 0,-4.4 v 0 c 0,-0.3 -0.1,-0.7 -0.1,-1 -0.3,-3 -0.6,-5.3 0.7,-6.4 0.1,-0.1 0.3,-0.2 0.4,-0.2 0.4,-0.2 0.8,-0.1 1.2,0.1 0.4,0.2 0.7,0.5 1.1,0.9 0.6,0.7 1.2,1.7 1.5,2.5 v 0 0 c 0.6,1.4 0.8,4 0.9,5.5 0,0.4 0,0.7 0.1,0.9 v 0 c 0,0.4 0.2,0.8 0.4,1 0,0 0.1,0.1 0.1,0.1 0,0 0,0 0,0 v 0 c 0.1,-0.1 0.2,-0.2 0.2,-0.6 v 0 0 0 c 0.1,-0.7 0,-1.6 -0.1,-2.6 -0.1,-1 -0.2,-1.9 -0.1,-2.8 0.2,-1.2 0.6,-2.1 0.8,-2.5 C 63.7,15.2 62.5,14.2 62.2,13 61.9,11.7 61.5,10.2 61.4,9.7 60.8,9.4 58.5,8.2 58,6 57.3,3.5 58.4,1.2 58.4,1.2 L 58.5,0.9 59.2,1 c 0,0 3.9,2.7 4.3,3.3 0.3,0.5 0.8,1 0.8,1 v 0 0 c 0,0 1.2,1.4 1.9,2 v 0 c 0.1,0.1 0.3,0.3 0.4,0.5 0.2,0.2 0.4,0.5 0.6,0.8 1.1,1.6 2.5,4.1 2.9,4.7 v 0 0 c 0.1,0.1 0.1,0.3 0.2,0.6 0.1,0.2 0.1,0.5 0.2,0.8 0.4,1.6 0.7,3.9 0.8,4.7 0,0.4 0.2,0.7 0.4,1 0.3,0.6 0.6,1.5 0.5,3.7 0,2.1 -0.3,2.7 -0.6,3.3 -0.2,0.5 -0.4,1 -0.5,2.2 v 0 c -0.2,2 -0.5,4.9 -0.8,7.1 -0.1,1 -0.2,1.9 -0.2,2.4 v 0 0 0 c -0.1,1 -0.6,2.1 -1,3.1 -0.3,0.7 -0.6,1.3 -0.5,1.5 v 0 c 0,0.2 0.2,0.4 0.4,0.6 0.3,0.3 0.7,0.7 0.7,1.3 0.1,1 -3.1,5.8 -3.1,5.8 l -0.2,0.3 z M 21,29.3 c 0,0.2 0,0.4 0,0.6 0,1 -0.1,2.2 0,3.1 0,1 0.1,2.5 0.3,3.8 0.2,1.3 0.4,2.5 0.9,2.9 0.1,0.1 0.2,0.2 0.4,0.2 0.3,0.1 0.6,0 0.8,-0.2 0.2,-0.2 0.4,-0.5 0.6,-0.9 0.3,-0.7 0.6,-1.7 0.7,-3 v 0 c 0,-0.4 0.1,-0.8 0.1,-1.3 0,-0.4 0.1,-0.8 0.2,-1.2 0.3,-1.8 0.6,-3.2 0.8,-3.6 0,0 0,0 0,0.1 v 0 c 0.1,0.1 0.3,0.4 0.4,0.7 0.5,0.9 1.1,2.3 1.3,3.3 v 0 0 c 0.1,0.6 0.2,1.5 0.3,2.2 0.1,1.4 0.3,2.7 0.6,3.1 0.1,0.1 0.3,0.2 0.4,0.3 v 0 c 0.2,0.1 0.4,0.1 0.7,-0.1 0.2,-0.1 0.4,-0.3 0.5,-0.7 0.3,-0.6 0.5,-1.6 0.6,-3.2 0.2,-3.5 0.1,-5.9 0.1,-6.4 l 0.5,-0.4 v 0 h 0.1 c 0.3,-0.2 0.4,-0.3 0.4,-0.5 0,-0.1 0,-0.2 -0.1,-0.4 0,-0.1 -0.1,-0.2 -0.1,-0.4 v 0 0 c 0,-0.1 0,-0.4 0,-0.7 0,-0.5 0,-1.1 -0.2,-1.8 v 0 0 0 C 31.2,24.5 31.1,24.2 31,23.9 30.9,23.6 30.9,23.3 30.8,23 v 0 c -0.2,-1 -0.4,-1.8 -0.6,-2.5 0.3,0.4 0.7,0.9 1.1,1.4 v 0 c 0.5,0.7 1.3,1.6 2.1,2.2 0.1,0 0.1,0.1 0.2,0.1 -0.1,0 -0.1,0.1 -0.2,0.1 v 0 0 0 c -0.1,0.1 -0.2,0.1 -0.2,0.2 -0.1,0.1 -0.1,0.2 -0.2,0.2 -0.3,0.4 -0.5,1 -0.5,1.5 v 0 0 c 0,0.4 0.1,0.8 0.3,1.1 v 0 c 0,0.1 0.1,0.1 0.1,0.2 v 0 c 0.2,0.3 0.4,0.5 0.6,0.7 h -0.1 c -0.8,0.3 -1.4,0.6 -1.8,1.1 -0.4,0.5 -0.6,1.1 -0.7,2.1 v 0.1 0 c 0,0.1 0,0.3 0,0.5 v 0 c 0,0.1 0,0.3 0,0.5 0,0.8 0,1.5 0.1,1.7 0.1,0.3 0.4,0.4 0.7,0.5 0.1,0 0.3,0.1 0.3,0.1 0,0.3 -0.1,0.4 -0.3,0.8 v 0 c -0.1,0.1 -0.1,0.2 -0.2,0.4 -0.5,0.8 -0.4,2.6 -0.4,2.6 v 0 0 c 0,0 0.3,0.9 1.3,0.8 0.6,-0.1 0.9,-0.9 1.3,-1.7 0.2,-0.5 0.4,-0.9 0.6,-1.3 0.3,-0.5 0.4,-0.6 0.5,-0.5 0.1,0 0.2,0.2 0.3,0.3 v 0 l 0.1,0.1 v 0 0 c 0.2,0.3 0.5,1 0.8,1.8 0.2,0.5 0.4,1 0.6,1.3 0.1,0.2 0.2,0.3 0.4,0.4 0.1,0.1 0.3,0 0.4,0 0.1,-0.1 0.2,-0.2 0.3,-0.3 0.2,-0.3 0.3,-0.7 0.3,-1.2 v 0 0 c 0,-0.5 0,-1.3 0,-1.9 0,-0.7 0,-1.4 0,-1.5 0,0 0,0 0,0 0.2,0 0.4,0 0.7,-0.2 0.2,-0.1 0.3,-0.2 0.4,-0.3 -0.1,0.9 -0.2,1.9 -0.2,2.7 v 0.5 c 0,0.6 0,1 0,1.4 0.1,0.8 0.3,1 0.9,1 v 0 0 0 c 0.7,-0.1 1.9,-3.2 2.9,-5.9 v 0 c 0.4,-1 0.8,-2 1.1,-2.8 0.3,-0.6 0.5,-1.1 0.7,-1.6 0.7,-1.6 1,-2.6 1.7,-3 0.3,-0.3 0.6,-0.3 0.9,-0.2 v 0 c 0.3,0.2 0.7,0.6 1.1,1.3 v 0 0 c 0.1,0.2 0.2,0.5 0.4,0.8 0.1,0.4 0.3,0.8 0.5,1.3 0.8,2.5 1.7,6.2 1.9,7.6 0.1,0.8 0.2,1.4 0.4,1.8 0.1,0.2 0.3,0.4 0.4,0.5 v 0 c 0.2,0.1 0.4,0.1 0.6,0 0.2,-0.1 0.4,-0.2 0.6,-0.5 v 0 0 c 0.1,-0.2 0.2,-0.5 0.4,-0.9 0.1,-0.4 0.2,-0.9 0.2,-1.5 0.3,-3 0.3,-7.8 -0.1,-9.6 v 0 c -0.3,-1.2 -1,-2.7 -1.6,-4.2 -0.7,-1.5 -1.4,-3.1 -1.6,-4.3 -0.2,-1.1 -0.1,-1.9 0,-2.3 0,-0.1 0.1,-0.1 0.1,-0.2 0,0 0.1,0.1 0.2,0.2 0.2,0.3 0.4,0.6 0.6,0.8 0.4,0.5 0.8,0.9 1.1,2.5 v 0 0 c 0.3,1.4 0.3,2.4 0.4,3.1 0,0.6 0.1,1 0.1,1.3 0.1,0.2 0.2,0.4 0.4,0.5 0.1,0.1 0.3,0.1 0.5,0.1 0.2,0 0.4,-0.1 0.6,-0.3 0.3,-0.2 0.6,-0.7 0.8,-1.5 v 0 0 0 c 0.1,-0.3 0.1,-0.6 0.2,-1 0.1,-0.4 0.1,-0.8 0.2,-1.3 0.3,-2.5 0.3,-5.8 -0.7,-7.9 v 0 C 54.7,12.5 54.5,12.2 54.2,12 54,11.7 53.7,11.5 53.5,11.3 52.2,10.2 50.2,9.4 48.7,9 c 0,0 -0.1,0 -0.1,0 v 0 c 0,0 0,-0.1 0,-0.1 0,-0.1 0,-0.1 0,-0.2 v 0 c 0,-0.1 0.1,-0.2 0.2,-0.3 v 0 0 0 C 48.9,8.3 49,8.2 49,8.1 49.1,8 49.1,7.9 49.2,7.8 v 0 c 0.3,-0.6 0.5,-1.3 0.5,-2 v 0 0 0 C 49.7,4.7 49.3,3.7 48.6,3 47.9,2.3 47,1.9 45.9,1.9 v 0 0 0 0 c -1,0 -2,0.4 -2.7,1.1 -0.7,0.7 -1.1,1.7 -1.1,2.8 v 0 0 0 0 c 0,0.4 0.1,0.8 0.2,1.2 v 0 c 0,0 0,0.1 0.1,0.2 0.1,0.3 0.3,0.6 0.4,0.8 v 0 c 0.1,0.1 0.1,0.2 0.2,0.3 0.1,0.2 0.1,0.4 0.1,0.6 0,0.1 -0.1,0.3 -0.2,0.4 v 0 c 0,0 -0.1,0 -0.1,0.1 -0.4,0.1 -0.7,0.3 -1,0.5 -0.3,0.2 -0.6,0.5 -0.9,0.8 -0.9,1.1 -1.1,2.3 -1.4,3.6 -0.2,0.8 -0.3,1.7 -0.7,2.6 -0.5,1.2 -0.8,2.1 -1.2,2.9 -0.4,0.8 -0.7,1.3 -1.1,1.8 v 0 0 0 l -0.1,0.1 -0.1,0.1 C 36.2,22 36,22.1 35.9,22.3 v 0 c 0,0 0,-0.1 0,-0.1 v 0 c 0,-0.1 -0.1,-0.2 -0.1,-0.3 -0.2,-0.5 -0.6,-1.1 -1.2,-1.6 v 0 c -0.6,-0.6 -0.9,-1 -1.2,-1.6 -0.3,-0.6 -0.5,-1.2 -0.7,-2.2 v 0 0 0 C 32.6,16.2 32.5,15.9 32.4,15.6 32.3,15.3 32.1,15 31.9,14.7 31,13.1 29.7,11.5 29.4,11.4 v 0 C 29.3,11.4 29.2,11.3 29,11.2 28.9,11.1 28.7,11.1 28.6,11 v 0 c -0.1,0 -0.1,-0.1 -0.2,-0.1 0,0 -0.1,-0.1 -0.1,-0.2 0,-0.1 0,-0.2 0,-0.3 0.1,-0.1 0.2,-0.3 0.3,-0.4 v 0 0 0 C 28.7,9.9 28.8,9.8 28.8,9.7 28.9,9.6 28.9,9.5 29,9.4 v 0 c 0.3,-0.5 0.5,-1.2 0.5,-1.9 v 0 0 c 0,-1 -0.4,-1.8 -1,-2.4 -0.6,-0.6 -1.5,-1 -2.4,-1 v 0 0 0 0 c -0.9,0 -1.8,0.4 -2.4,1 -0.6,0.6 -1,1.5 -1,2.4 v 0 0 0 0 c 0,0.5 0.1,0.9 0.3,1.3 0,0.1 0,0.1 0.1,0.2 v 0 c 0.2,0.3 0.4,0.6 0.6,0.9 0.1,0.1 0.2,0.2 0.2,0.3 0,0 0,0 0,0 0,0 0,0 -0.1,0 -0.8,0.2 -1.5,0.5 -2.3,1 -0.7,0.6 -1.5,1.4 -2.1,2.8 -0.7,1.5 -1,3.1 -1,4.6 0,1.4 0.1,2.7 0.2,3.3 0.2,1.2 1.2,3.1 1.5,3.6 l -1.9,3.3 v 0 c 0,0 0,0.1 0,0.1 0,0.1 0,0.1 0,0.2 v 0 c 0,0 0.1,0.1 0.1,0.1 v 0 c 0,0 0.1,0 0.2,0.1 v 0 0 c 1.3,0.2 2.2,0 2.8,-0.1 z m 12.6,-1.2 v 0 c 0,0 0,0 0,0 v 0 0 z m 0,0 v 0 c 0,-0.1 0,-0.1 0,0 z m 5.2,5.3 c 0,-0.2 0,-0.5 0,-1 v 0 c 0,-0.2 0,-0.4 0,-0.6 0,-0.2 0,-0.4 0,-0.6 0,-1 -0.3,-2 -0.8,-2.5 v 0 0 c 0,0 -0.1,-0.1 -0.1,-0.1 v 0 c 0,0 -0.1,-0.1 -0.1,-0.1 -0.3,-0.2 -0.6,-0.3 -1,-0.5 v 0 0 c 0,0 0.1,-0.1 0.1,-0.1 v 0 0 0 c 0.1,-0.1 0.1,-0.1 0.2,-0.2 0,-0.1 0.1,-0.1 0.1,-0.2 0.2,-0.4 0.4,-0.8 0.4,-1.3 v 0 0 c 0,-0.4 -0.1,-0.8 -0.3,-1.1 v 0 c 0,0 -0.1,-0.1 -0.1,-0.2 v 0 C 37,24.6 36.8,24.4 36.5,24.2 v 0 h 0.1 v 0 0 0 0 0 c 0.1,0 0.1,-0.1 0.2,-0.1 0.1,0 0.1,-0.1 0.2,-0.1 0.4,-0.2 0.7,-0.4 1.1,-0.7 0.4,-0.3 1,-0.9 1.7,-1.6 0.6,-0.6 1.1,-1.1 1.5,-1.5 0,0.2 0,0.3 -0.1,0.5 -0.1,0.4 -0.1,0.9 -0.2,1.5 -0.1,0.9 -0.4,2.5 -0.7,4.2 -0.3,1.7 -0.7,3.4 -0.9,4.2 -0.1,0.8 -0.4,1.8 -0.6,2.8 v 0.2 c 0,0 0,-0.1 0,-0.2 z m 2.9,-13.9 v 0 c 0.1,0 0.1,0 0,0 0,0 -0.1,0 0,0 z M 15.5,45.4 c -4.7,2.5 -8.7,6.2 -8.7,6.2 L 6.6,51.8 6.4,51.5 c 0,0 -3.2,-4.8 -3.1,-5.8 C 3.4,45.1 3.7,44.8 4,44.4 4.2,44.2 4.4,44 4.4,43.8 v 0 C 4.4,43.6 4.2,43 3.9,42.3 3.5,41.4 3,40.2 2.9,39.2 v 0 0 0 C 2.9,38.7 2.8,37.8 2.7,36.8 2.5,34.6 2.2,31.7 1.9,29.7 v 0 C 1.8,28.5 1.6,28 1.4,27.5 1,27 0.7,26.4 0.7,24.3 0.7,22.1 1,21.2 1.2,20.6 1.4,20.2 1.5,20 1.6,19.6 1.7,18.8 2,16.5 2.4,14.9 2.5,14.6 2.5,14.3 2.6,14.1 2.7,13.9 2.7,13.6 2.8,13.5 v 0 0 C 3.1,12.8 4.6,10.4 5.7,8.8 5.9,8.5 6.1,8.2 6.3,8 6.5,7.8 6.6,7.6 6.7,7.5 v 0 0 0 c 0.7,-0.7 1.9,-2 1.9,-2 v 0 0 C 8.6,5.5 9.1,5 9.4,4.5 9.9,3.7 13.8,1 13.8,1 l 0.3,-0.2 0.1,0.3 c 0,0 1.1,2.4 0.4,4.8 -0.6,2.2 -2.9,3.4 -3.4,3.7 -0.1,0.4 -0.5,2 -0.8,3.3 -0.3,1.2 -1.5,2.2 -2,2.5 0.2,0.4 0.6,1.3 0.8,2.6 0.1,0.8 0,1.8 -0.1,2.8 C 9,21.7 8.9,22.6 9,23.4 v 0 0 0 c 0.1,0.3 0.1,0.5 0.2,0.6 v 0 c 0,0 0,0 0,0 0,0 0.1,0 0.1,-0.1 0.2,-0.2 0.4,-0.6 0.4,-1 v 0 c 0,-0.2 0,-0.5 0.1,-0.9 0.1,-1.5 0.3,-4.1 0.9,-5.5 v 0 0 c 0.4,-0.8 0.9,-1.8 1.5,-2.5 0.3,-0.4 0.7,-0.7 1.1,-0.9 0.4,-0.2 0.8,-0.3 1.2,-0.1 0.1,0.1 0.3,0.1 0.4,0.2 1.3,1.2 1.1,3.5 0.7,6.4 0,0.3 -0.1,0.7 -0.1,1 v 0 c -0.2,1.6 -0.1,3 0,4.4 0.2,1.4 0.5,2.7 0.9,4.3 0.7,2.8 -0.7,6.8 -1,7.7 l 5.5,4.8 0.3,0.2 -0.3,0.2 c 0.4,0 -0.7,0.7 -5.4,3.2 z"
   id="path26"
   style="fill:url(#SVGID_2_)" />
</g>
<g
   id="g62"
   transform="translate(-0.45,-0.41042706)">
	<path
   class="st1"
   d="m 97.9,9.3 h 5.4 c 1.3,0 2.4,0.4 3,1 0.5,0.5 0.8,1.2 0.8,2 0,1.3 -0.7,2 -1.5,2.5 1.3,0.5 2.2,1.3 2.2,2.9 0,2.1 -1.7,3.2 -4.3,3.2 H 98 V 9.3 Z m 4.8,4.7 c 1.1,0 1.8,-0.4 1.8,-1.3 0,-0.8 -0.6,-1.2 -1.7,-1.2 h -2.5 V 14 Z m 0.7,4.7 c 1.1,0 1.8,-0.4 1.8,-1.3 0,-0.8 -0.6,-1.3 -1.9,-1.3 h -3 v 2.6 z"
   id="path30" />
	<path
   class="st1"
   d="m 113.8,9.2 h 2.4 l 5,11.7 h -2.7 l -1.1,-2.6 h -4.9 l -1.1,2.6 h -2.6 z m 2.7,6.9 -1.5,-3.8 -1.5,3.8 z"
   id="path32" />
	<path
   class="st1"
   d="M 139.2,20.9 H 123.3 V 9.3 h 2.6 v 9.3 H 130 V 9.3 h 2.6 v 9.3 h 4.1 V 9.3 h 2.6 v 11.6 z"
   id="path34" />
	<path
   class="st1"
   d="m 146.3,9.2 h 2.4 l 5,11.7 H 151 l -1.1,-2.6 H 145 l -1.1,2.6 h -2.6 z m 2.7,6.9 -1.5,-3.8 -1.5,3.8 z"
   id="path36" />
	<path
   class="st1"
   d="m 100.4,31.6 h 3.1 c 2.6,0 4.1,1.4 4.1,3.6 0,2.4 -1.6,3.7 -4.3,3.7 H 97.9 V 27.2 h 8.9 v 2.3 h -6.4 z m 0,2.1 v 2.9 h 2.8 c 1.2,0 1.8,-0.5 1.8,-1.5 0,-0.9 -0.6,-1.4 -1.8,-1.4 z"
   id="path38" />
	<path
   class="st1"
   d="m 110,27.2 h 8.8 v 2.3 h -6.2 v 2.4 h 5.5 v 2.3 h -5.5 v 2.4 h 6.3 v 2.3 H 110 Z"
   id="path40" />
	<path
   class="st1"
   d="m 129.8,30.1 c 0,1.4 -0.8,2.2 -1.9,2.7 1.2,0.4 2.2,1.3 2.2,2.7 0,2 -1.7,3.5 -4.4,3.5 -2.4,0 -3.9,-0.7 -5.2,-1.9 l 1.4,-1.8 c 0.9,0.9 2.2,1.5 3.7,1.5 1.1,0 2,-0.5 2,-1.4 0,-1 -1,-1.4 -2.3,-1.4 H 124 v -2.1 h 1.3 c 1.3,0 2.1,-0.5 2.1,-1.3 0,-0.8 -0.8,-1.3 -1.9,-1.3 -1.4,0 -2.4,0.5 -3.1,1.3 L 121.1,29 c 1.1,-1.1 2.5,-1.9 4.7,-1.9 2.3,-0.1 4,1.2 4,3 z"
   id="path42" />
	<path
   class="st1"
   d="m 132.1,33 c 0,-3.3 2.6,-6 6.2,-6 3.6,0 6.2,2.7 6.2,6 0,3.3 -2.6,6 -6.2,6 -3.6,0 -6.2,-2.6 -6.2,-6 z m 9.7,0 c 0,-2 -1.5,-3.6 -3.5,-3.6 -2,0 -3.5,1.6 -3.5,3.6 0,2 1.5,3.6 3.5,3.6 2,0 3.5,-1.5 3.5,-3.6 z"
   id="path44" />
	<path
   class="st1"
   d="m 147,27.2 h 9.7 v 11.6 h -2.6 v -9.3 h -4.6 v 9.3 H 147 Z"
   id="path46" />
	<path
   class="st1"
   d="m 163.8,27.1 h 2.4 l 5,11.7 h -2.7 l -1.1,-2.6 h -4.9 l -1.1,2.6 h -2.6 z m 2.7,6.9 -1.5,-3.8 -1.5,3.8 z"
   id="path48" />
	<path
   class="st1"
   d="m 172.1,33 c 0,-3.3 2.5,-6 6.1,-6 2.2,0 3.4,0.8 4.5,1.9 l -1.5,1.8 c -0.9,-0.8 -1.7,-1.3 -3,-1.3 -2,0 -3.4,1.6 -3.4,3.6 0,2 1.4,3.6 3.4,3.6 1.3,0 2.1,-0.5 3.1,-1.4 l 1.6,1.7 c -1.2,1.3 -2.5,2 -4.8,2 -3.5,0.1 -6,-2.5 -6,-5.9 z"
   id="path50" />
	<path
   class="st1"
   d="m 185.2,27.2 h 2.6 v 4.6 h 4.7 v -4.6 h 2.6 v 11.6 h -2.6 v -4.7 h -4.7 v 4.7 h -2.6 z"
   id="path52" />
	<path
   class="st1"
   d="m 197.6,33 c 0,-3.3 2.6,-6 6.2,-6 3.6,0 6.2,2.7 6.2,6 0,3.3 -2.6,6 -6.2,6 -3.6,0 -6.2,-2.6 -6.2,-6 z m 9.7,0 c 0,-2 -1.5,-3.6 -3.5,-3.6 -2,0 -3.5,1.6 -3.5,3.6 0,2 1.5,3.6 3.5,3.6 2,0 3.5,-1.5 3.5,-3.6 z"
   id="path54" />
	<path
   class="st1"
   d="m 212,33 c 0,-3.3 2.5,-6 6.1,-6 2.2,0 3.4,0.8 4.5,1.9 l -1.5,1.8 c -0.9,-0.8 -1.7,-1.3 -3,-1.3 -2,0 -3.4,1.6 -3.4,3.6 0,2 1.4,3.6 3.4,3.6 1.3,0 2.1,-0.5 3.1,-1.4 l 1.6,1.7 c -1.2,1.3 -2.5,2 -4.8,2 -3.4,0.1 -6,-2.5 -6,-5.9 z"
   id="path56" />
	<path
   class="st1"
   d="m 227.8,29.6 h -3.5 v -2.4 h 9.6 v 2.4 h -3.5 v 9.3 h -2.6 z"
   id="path58" />
	<path
   class="st1"
   d="m 236.2,27.2 h 2.6 v 3.9 h 2.5 c 2.7,0 4.2,1.5 4.2,3.8 0,2.4 -1.7,3.9 -4.4,3.9 h -4.9 z m 2.5,6.2 v 3.2 h 2.3 c 1.3,0 1.9,-0.5 1.9,-1.6 0,-1 -0.6,-1.5 -1.9,-1.5 h -2.3 z"
   id="path60" />
<path
   d="m 104.99968,55.812252 h -2.446 l -2.28501,-2.983981 h -0.488165 v 2.983981 h -1.994188 v -7.392924 h 1.994188 v 3.013771 q 0.244085,-0.0099 0.405075,-0.04469 0.16098,-0.03972 0.29601,-0.134056 0.14021,-0.0993 0.3012,-0.292937 0.16099,-0.198601 0.33756,-0.486572 0.10906,-0.178741 0.24408,-0.422027 0.14022,-0.248252 0.2337,-0.407132 0.39987,-0.670279 0.8413,-0.953286 0.44142,-0.287971 1.33465,-0.287971 0.26485,0 0.47258,0.0099 0.20772,0.005 0.30639,0.005 v 1.603704 h -0.57644 q -0.42584,0 -0.66473,0.208531 -0.23369,0.208531 -0.51932,0.734824 -0.28562,0.521327 -0.46739,0.734824 -0.18176,0.208531 -0.35313,0.297901 z"
   id="path390"
   style="font-weight:bold;font-size:10.3994px;font-family:Verdana;-inkscape-font-specification:'Verdana, Bold';fill:#ffffff;stroke-width:0.866619" /><path
   d="m 113.50614,52.118272 q 0,1.76755 -1.05941,2.810205 -1.05942,1.037691 -2.92897,1.037691 -1.86436,0 -2.92378,-1.037691 -1.05941,-1.042655 -1.05941,-2.810205 0,-1.782444 1.05941,-2.81517 1.05942,-1.03769 2.92378,-1.03769 1.85916,0 2.92377,1.03769 1.06461,1.032726 1.06461,2.81517 z m -2.64334,1.871816 q 0.29082,-0.337623 0.43103,-0.794405 0.14022,-0.461747 0.14022,-1.082376 0,-0.665313 -0.16099,-1.132026 -0.16099,-0.466712 -0.42065,-0.754684 -0.26486,-0.297901 -0.6128,-0.431956 -0.34275,-0.134057 -0.71666,-0.134057 -0.3791,0 -0.71666,0.129091 -0.33236,0.12909 -0.6128,0.426992 -0.25966,0.278042 -0.42584,0.769579 -0.16099,0.486573 -0.16099,1.132026 0,0.660349 0.15579,1.127062 0.161,0.461747 0.42066,0.754683 0.25966,0.292937 0.6076,0.431958 0.34795,0.13902 0.73224,0.13902 0.3843,0 0.73224,-0.13902 0.34795,-0.143987 0.60761,-0.441887 z"
   id="path392"
   style="font-weight:bold;font-size:10.3994px;font-family:Verdana;-inkscape-font-specification:'Verdana, Bold';fill:#ffffff;stroke-width:0.866619" /><path
   d="m 121.41019,50.75289 q 0,0.496502 -0.18177,0.973145 -0.18175,0.471678 -0.51931,0.794404 -0.4622,0.436922 -1.03345,0.660349 -0.56606,0.223426 -1.41255,0.223426 h -1.24118 v 2.408038 h -1.99419 v -7.392924 h 3.28211 q 0.73743,0 1.24117,0.124126 0.50894,0.11916 0.89843,0.362447 0.46738,0.292936 0.71146,0.749718 0.24928,0.456783 0.24928,1.097271 z m -2.0617,0.04469 q 0,-0.312797 -0.17657,-0.536223 -0.17658,-0.228392 -0.41027,-0.317762 -0.31159,-0.11916 -0.60759,-0.129091 -0.29602,-0.01489 -0.78938,-0.01489 h -0.34275 v 2.214401 h 0.57126 q 0.50893,0 0.8361,-0.05958 0.33236,-0.05958 0.55567,-0.238321 0.19215,-0.158881 0.27524,-0.377342 0.0883,-0.223426 0.0883,-0.541187 z"
   id="path394"
   style="font-weight:bold;font-size:10.3994px;font-family:Verdana;-inkscape-font-specification:'Verdana, Bold';fill:#ffffff;stroke-width:0.866619" /><path
   d="m 129.75566,55.812252 h -1.99419 v -5.962996 h -2.94455 v 5.962996 h -1.99418 v -7.392924 h 6.93292 z"
   id="path396"
   style="font-weight:bold;font-size:10.3994px;font-family:Verdana;-inkscape-font-specification:'Verdana, Bold';fill:#ffffff;stroke-width:0.866619" /><path
   d="m 139.24883,52.118272 q 0,1.76755 -1.05941,2.810205 -1.05942,1.037691 -2.92897,1.037691 -1.86436,0 -2.92377,-1.037691 -1.05941,-1.042655 -1.05941,-2.810205 0,-1.782444 1.05941,-2.81517 1.05941,-1.03769 2.92377,-1.03769 1.85917,0 2.92377,1.03769 1.06461,1.032726 1.06461,2.81517 z m -2.64334,1.871816 q 0.29082,-0.337623 0.43104,-0.794405 0.14021,-0.461747 0.14021,-1.082376 0,-0.665313 -0.16099,-1.132026 -0.16098,-0.466712 -0.42064,-0.754684 -0.26485,-0.297901 -0.6128,-0.431956 -0.34276,-0.134057 -0.71666,-0.134057 -0.37911,0 -0.71667,0.129091 -0.33236,0.12909 -0.61279,0.426992 -0.25967,0.278042 -0.42585,0.769579 -0.16099,0.486573 -0.16099,1.132026 0,0.660349 0.15581,1.127062 0.16098,0.461747 0.42064,0.754683 0.25966,0.292937 0.60761,0.431958 0.34794,0.13902 0.73224,0.13902 0.38429,0 0.73224,-0.13902 0.34794,-0.143987 0.6076,-0.441887 z"
   id="path398"
   style="font-weight:bold;font-size:10.3994px;font-family:Verdana;-inkscape-font-specification:'Verdana, Bold';fill:#ffffff;stroke-width:0.866619" /><path
   d="m 147.15289,50.75289 q 0,0.496502 -0.18176,0.973145 -0.18177,0.471678 -0.51933,0.794404 -0.46219,0.436922 -1.03345,0.660349 -0.56605,0.223426 -1.41255,0.223426 h -1.24117 v 2.408038 h -1.99419 v -7.392924 h 3.2821 q 0.73744,0 1.24118,0.124126 0.50893,0.11916 0.89842,0.362447 0.4674,0.292936 0.71147,0.749718 0.24928,0.456783 0.24928,1.097271 z m -2.06171,0.04469 q 0,-0.312797 -0.17657,-0.536223 -0.17656,-0.228392 -0.41025,-0.317762 -0.3116,-0.11916 -0.60761,-0.129091 -0.29602,-0.01489 -0.78937,-0.01489 h -0.34275 v 2.214401 h 0.57125 q 0.50894,0 0.8361,-0.05958 0.33238,-0.05958 0.55568,-0.238321 0.19215,-0.158881 0.27524,-0.377342 0.0883,-0.223426 0.0883,-0.541187 z"
   id="path400"
   style="font-weight:bold;font-size:10.3994px;font-family:Verdana;-inkscape-font-specification:'Verdana, Bold';fill:#ffffff;stroke-width:0.866619" /><path
   d="m 155.71127,55.812252 h -2.0617 l -0.53489,-1.494474 h -2.86666 l -0.53489,1.494474 h -2.00977 l 2.85626,-7.392924 h 2.2954 z m -3.07956,-2.849926 -0.95035,-2.651323 -0.95037,2.651323 z"
   id="path402"
   style="font-weight:bold;font-size:10.3994px;font-family:Verdana;-inkscape-font-specification:'Verdana, Bold';fill:#ffffff;stroke-width:0.866619" /><path
   d="m 162.8727,49.849256 h -2.41484 v 5.962996 h -1.99418 v -5.962996 h -2.41485 v -1.429928 h 6.82387 z"
   id="path404"
   style="font-weight:bold;font-size:10.3994px;font-family:Verdana;-inkscape-font-specification:'Verdana, Bold';fill:#ffffff;stroke-width:0.866619" /><path
   d="m 171.1247,55.812252 h -1.94226 V 50.89191 l -3.2094,4.920342 h -1.90071 v -7.392924 h 1.94225 v 4.453628 l 2.9861,-4.453628 h 2.12402 z"
   id="path406"
   style="font-weight:bold;font-size:10.3994px;font-family:Verdana;-inkscape-font-specification:'Verdana, Bold';fill:#ffffff;stroke-width:0.866619" /><path
   d="m 179.6831,53.548199 q 0,0.536223 -0.22851,0.958251 -0.2233,0.422027 -0.61799,0.700068 -0.457,0.327692 -1.00748,0.466713 -0.54528,0.139021 -1.38658,0.139021 h -3.37558 v -7.392924 h 3.00167 q 0.93478,0 1.36581,0.05958 0.43623,0.05958 0.86207,0.263146 0.44142,0.213497 0.65435,0.575944 0.2181,0.357482 0.2181,0.819229 0,0.536223 -0.296,0.94832 -0.29602,0.407132 -0.83611,0.635523 v 0.03972 q 0.75821,0.143985 1.19963,0.595803 0.44662,0.451818 0.44662,1.191606 z m -2.55506,-3.038595 q 0,-0.183706 -0.0987,-0.367412 -0.0935,-0.183706 -0.33756,-0.273077 -0.21811,-0.07944 -0.54528,-0.0844 -0.32198,-0.0099 -0.90881,-0.0099 h -0.18696 v 1.563983 h 0.31159 q 0.47259,0 0.80495,-0.01489 0.33236,-0.01489 0.52451,-0.0993 0.27005,-0.114195 0.35314,-0.292936 0.0831,-0.183706 0.0831,-0.422028 z m 0.48816,3.008805 q 0,-0.352517 -0.14541,-0.541187 -0.14022,-0.193637 -0.48297,-0.287971 -0.23369,-0.06454 -0.64396,-0.06951 -0.41026,-0.005 -0.85687,-0.005 h -0.43623 v 1.842025 h 0.14541 q 0.8413,0 1.20482,-0.005 0.36353,-0.005 0.66992,-0.129091 0.3116,-0.124126 0.42585,-0.327692 0.11944,-0.208531 0.11944,-0.476643 z"
   id="path408"
   style="font-weight:bold;font-size:10.3994px;font-family:Verdana;-inkscape-font-specification:'Verdana, Bold';fill:#ffffff;stroke-width:0.866619" /><path
   d="m 188.10127,55.812252 h -1.99418 v -3.257057 h -2.94455 v 3.257057 h -1.99419 v -7.392924 h 1.99419 v 2.705939 h 2.94455 v -2.705939 h 1.99418 z"
   id="path410"
   style="font-weight:bold;font-size:10.3994px;font-family:Verdana;-inkscape-font-specification:'Verdana, Bold';fill:#ffffff;stroke-width:0.866619" /><path
   d="m 194.60836,53.493584 q 0,-0.183705 -0.0415,-0.347551 -0.0415,-0.163846 -0.18175,-0.302867 -0.14022,-0.134055 -0.3843,-0.213496 -0.24408,-0.07944 -0.67512,-0.07944 h -1.25678 v 1.881746 h 1.25675 q 0.32718,0 0.58684,-0.07944 0.26485,-0.07944 0.40506,-0.203566 0.14022,-0.119161 0.21293,-0.283006 0.0779,-0.168812 0.0779,-0.372378 z m 2.0617,-0.05462 q 0,0.541188 -0.21812,0.99797 -0.21292,0.451818 -0.58684,0.739789 -0.47257,0.362447 -0.98671,0.501468 -0.50892,0.134056 -1.23597,0.134056 h -3.56773 v -7.392924 h 1.99419 v 2.75559 h 1.6047 q 0.80494,0 1.31907,0.114195 0.51932,0.10923 0.914,0.407132 0.39988,0.297902 0.58164,0.754685 0.18177,0.451816 0.18177,0.988039 z m 2.73162,2.373283 h -1.99419 v -7.392924 h 1.99419 z"
   id="path412"
   style="font-weight:bold;font-size:10.3994px;font-family:Verdana;-inkscape-font-specification:'Verdana, Bold';fill:#ffffff;stroke-width:0.866619" /><path
   d="M 208.42746,55.812252 H 206.4852 V 50.89191 l -3.20939,4.920342 h -1.90072 v -7.392924 h 1.94226 v 4.453628 l 2.98609,-4.453628 h 2.12402 z M 207.69521,45.9815 q -0.005,0.923495 -0.73223,1.449788 -0.72705,0.526293 -2.05131,0.526293 -1.32427,0 -2.05132,-0.526293 -0.72704,-0.526293 -0.73224,-1.449788 h 1.74491 q 0.0104,0.541188 0.23889,0.784474 0.2285,0.238321 0.79976,0.238321 0.57125,0 0.79974,-0.243286 0.22851,-0.243287 0.23889,-0.779509 z"
   id="path414"
   style="font-weight:bold;font-size:10.3994px;font-family:Verdana;-inkscape-font-specification:'Verdana, Bold';fill:#ffffff;stroke-width:0.866619" /><path
   d="m 217.49998,55.956238 q -0.86207,0 -1.59431,-0.243287 -0.72705,-0.243286 -1.25156,-0.724893 -0.52451,-0.481608 -0.81533,-1.201537 -0.28563,-0.719928 -0.28563,-1.663283 0,-0.878811 0.27524,-1.593774 0.27524,-0.714964 0.79975,-1.226362 0.50374,-0.491537 1.24637,-0.759648 0.74782,-0.268112 1.63067,-0.268112 0.48816,0 0.87764,0.05462 0.39469,0.04965 0.72706,0.134056 0.34794,0.09434 0.62838,0.213496 0.28562,0.114195 0.49854,0.213496 v 1.792374 h -0.22851 q -0.1454,-0.11916 -0.36871,-0.283006 -0.21811,-0.163845 -0.49854,-0.322726 -0.28563,-0.158882 -0.618,-0.268112 -0.33236,-0.10923 -0.71147,-0.10923 -0.42064,0 -0.79974,0.12909 -0.37912,0.124126 -0.70109,0.417062 -0.30639,0.283007 -0.49854,0.749719 -0.18697,0.466713 -0.18697,1.132027 0,0.695103 0.20254,1.161815 0.20773,0.466712 0.51932,0.734824 0.31679,0.273077 0.70628,0.392237 0.38949,0.114196 0.76859,0.114196 0.36353,0 0.71667,-0.104265 0.35833,-0.104266 0.65953,-0.283007 0.25447,-0.143986 0.47259,-0.307831 0.2181,-0.163847 0.35833,-0.283008 h 0.20772 v 1.76755 q -0.29082,0.124125 -0.55567,0.233357 -0.26486,0.10923 -0.55568,0.18867 -0.3791,0.104266 -0.71146,0.158881 -0.33237,0.05462 -0.91401,0.05462 z"
   id="path416"
   style="font-weight:bold;font-size:10.3994px;font-family:Verdana;-inkscape-font-specification:'Verdana, Bold';fill:#ffffff;stroke-width:0.866619" /><path
   d="m 228.84712,55.812252 h -2.0617 l -0.53489,-1.494474 h -2.86666 l -0.53489,1.494474 h -2.00977 l 2.85626,-7.392924 h 2.29539 z m -3.07956,-2.849926 -0.95036,-2.651323 -0.95036,2.651323 z"
   id="path418"
   style="font-weight:bold;font-size:10.3994px;font-family:Verdana;-inkscape-font-specification:'Verdana, Bold';fill:#ffffff;stroke-width:0.866619" /><path
   d="m 237.01083,55.812252 h -1.94225 V 50.89191 l -3.20939,4.920342 h -1.90072 v -7.392924 h 1.94226 v 4.453628 l 2.98609,-4.453628 h 2.12401 z M 236.2786,45.9815 q -0.005,0.923495 -0.73224,1.449788 -0.72705,0.526293 -2.05132,0.526293 -1.32426,0 -2.05131,-0.526293 -0.72705,-0.526293 -0.73225,-1.449788 h 1.74492 q 0.0103,0.541188 0.23889,0.784474 0.2285,0.238321 0.79975,0.238321 0.57125,0 0.79975,-0.243286 0.2285,-0.243287 0.23889,-0.779509 z"
   id="path420"
   style="font-weight:bold;font-size:10.3994px;font-family:Verdana;-inkscape-font-specification:'Verdana, Bold';fill:#ffffff;stroke-width:0.866619" /><path
   d="m 245.00316,49.849256 h -2.41483 v 5.962996 h -1.99419 v -5.962996 h -2.41484 v -1.429928 h 6.82386 z"
   id="path422"
   style="font-weight:bold;font-size:10.3994px;font-family:Verdana;-inkscape-font-specification:'Verdana, Bold';fill:#ffffff;stroke-width:0.866619" /></g>
</svg>
