<?xml version="1.0" encoding="UTF-8" standalone="no"?>
<!-- Generator: Adobe Illustrator 21.1.0, SVG Export Plug-In . SVG Version: 6.00 Build 0)  -->

<svg
   version="1.1"
   id="Layer_1"
   x="0px"
   y="0px"
   viewBox="0 0 72.019134 59.516022"
   xml:space="preserve"
   sodipodi:docname="logo.svg"
   inkscape:version="1.2 (dc2aeda, 2022-05-15)"
   width="72.019135"
   height="59.516022"
   xmlns:inkscape="http://www.inkscape.org/namespaces/inkscape"
   xmlns:sodipodi="http://sodipodi.sourceforge.net/DTD/sodipodi-0.dtd"
   xmlns="http://www.w3.org/2000/svg"
   xmlns:svg="http://www.w3.org/2000/svg"><defs
   id="defs67" /><sodipodi:namedview
   id="namedview65"
   pagecolor="#ffffff"
   bordercolor="#111111"
   borderopacity="1"
   inkscape:showpageshadow="0"
   inkscape:pageopacity="0"
   inkscape:pagecheckerboard="1"
   inkscape:deskcolor="#d1d1d1"
   showgrid="false"
   inkscape:zoom="5.6723117"
   inkscape:cx="89.2934"
   inkscape:cy="29.881997"
   inkscape:window-width="1534"
   inkscape:window-height="765"
   inkscape:window-x="0"
   inkscape:window-y="25"
   inkscape:window-maximized="0"
   inkscape:current-layer="Layer_1" />
<style
   type="text/css"
   id="style2">
	.st0{fill:#61B1E1;}
	.st1{fill:#FFFFFF;}
	.st2{fill:none;stroke:#2D3E9A;stroke-width:0.216;stroke-miterlimit:2.6131;}
	.st3{fill:url(#SVGID_1_);}
	.st4{fill:url(#SVGID_2_);stroke:#2D3E9A;stroke-width:0.5;stroke-miterlimit:2.6131;}
</style>
<g
   id="g28"
   transform="translate(-0.45,-0.41042706)">
	<path
   class="st0"
   d="M 69.6,59.7 C 63.5,48.7 52,40.9 38.5,40.2 23.6,39.4 10.2,47.4 3.4,59.7 Z"
   id="path4"
   inkscape:label="path4"
   style="display:inline" />
	<path
   class="st1"
   d="m 30.2,41.4 c 0.1,0.1 0.2,0.1 0.2,0.2 -0.1,0 -0.2,0 -0.3,0.1 0,0.1 0,0.2 0,0.4 0.1,0 0.1,0 0.2,0 0.3,0 0,-0.1 0.4,-0.1 0,0.1 -0.1,0.2 -0.1,0.3 0.2,0.2 0.5,0.3 0.7,0.5 0.3,-0.1 1,0.1 1,-0.3 0,-0.2 0,-0.2 -0.1,-0.3 -0.1,0 -0.2,0 -0.3,0.1 0,-0.1 0,-0.1 -0.1,-0.2 -0.1,0 -0.2,0 -0.3,0 0,0 0,-0.1 0,-0.1 0.2,0 0.6,-0.3 0.2,-0.4 0,0.1 0,0.1 0,0.2 -0.3,0 -0.6,0 -0.9,0 -0.1,-0.1 -0.3,-0.3 -0.5,-0.3 0.1,-0.2 -0.1,-0.1 -0.1,-0.1 z m 24.6,3.4 h -0.1 c 0,0.1 -0.1,0.3 -0.1,0.5 0.1,0 0.2,0.1 0.3,0.1 0.1,0.3 0,0.7 -0.3,0.8 0.3,0.3 0.8,0.9 1.3,1 -0.1,-0.1 -0.2,-0.3 0,-0.3 0.3,0 0.2,0.1 0.4,0.3 0.1,0 0.3,0 0.5,0 0.2,0.1 0.3,0.2 0.5,0.2 0,0 0,0 0.1,0 -0.1,0.1 -0.1,0.3 -0.2,0.4 0.3,0.1 0.6,0.2 0.8,0.3 0,0.1 0,0.3 0.1,0.4 -0.1,0 -0.1,0.1 -0.2,0.2 0,0 0,0 0,0.1 0.3,0.1 0.5,0.2 0.8,0.4 0,0 0,0 0,-0.1 0,0.1 0,0.2 0,0.3 -0.1,0.1 -0.2,0.2 -0.2,0.3 0.6,0.2 1.1,1.1 0.8,1.3 0,0 0,-0.1 0,-0.1 -0.6,0 -1.8,-0.5 -2.2,-0.7 C 56.5,50 55.8,49.4 55.6,48.8 55.5,48.7 55.4,48.6 55.3,48.5 54.9,47 54.3,47 54,45.8 c -0.2,0.1 -0.3,0.1 -0.2,0.4 0,0.1 0.1,0.2 0.1,0.3 0.1,0.1 0.2,0.2 0.3,0.3 0,0 -0.1,0 -0.1,0 0,0.1 0,0.1 0,0.2 -0.2,0 -0.4,-0.1 -0.6,-0.1 0,0 0,0 0,-0.1 -0.3,0.1 -0.4,0.4 -0.4,0.7 0.2,0.1 0.5,0.3 0.5,0.5 0,0.2 0,0.3 0,0.5 0,0 0.1,0.1 0.1,0.1 0.1,-0.1 0.2,-0.2 0.3,-0.3 0.1,0.1 0.2,0.1 0.2,0.3 0,0 -0.3,1 -0.5,1 0,0 0,0 -0.1,0 -0.2,0 -0.2,0 -0.4,0 -0.1,0 -0.2,0.1 -0.2,0.2 0,0.2 0.1,0.3 0.1,0.5 -0.4,0.1 -0.4,0.5 -0.8,0.7 -0.5,0.3 -0.6,0.2 -0.6,0.9 0,0.9 -0.2,1.9 -0.3,2.7 -0.1,0 -0.2,0.1 -0.3,0.1 0,0.3 0.3,0.1 0.7,0 0.1,0.1 0.1,0.2 0.2,0.3 0,-0.1 0,-0.1 0.1,-0.2 0.1,0.1 0.2,0.1 0.4,0.2 0,-0.1 0.1,-0.1 0.1,-0.2 0,-0.1 -0.1,-0.1 0,-0.3 0,-0.1 0.3,-0.2 0.4,-0.3 0.3,0 0.7,0 1,0 0,-0.2 0.1,-0.4 0.1,-0.5 0.8,0.1 0.8,0.7 1.3,0.9 0.2,0.1 1.4,0.6 1.7,0.6 0,0.1 0,0.1 0,0.2 -0.3,0.1 -0.6,0.1 -0.9,0.2 0.4,1 0.6,0.3 1.3,1 -0.1,0 -0.3,0.1 -0.4,0.1 -0.1,0.1 -0.1,0.3 -0.2,0.4 -0.3,0 -0.6,-0.5 -0.6,-0.7 -0.2,0 -0.3,0 -0.5,0 0,0 0.1,0 0.1,0 -0.2,-0.4 -0.3,-0.8 -0.5,-1.1 -0.3,0 -0.6,0 -0.8,0 0.3,0.4 0.6,0.9 0.9,1.3 0,0 0.1,0 0.1,0 -0.1,0.5 -0.3,0.9 -0.5,1.4 0.1,0 0.2,0 0.3,0 -0.1,0.1 -0.1,0.1 -0.2,0.3 -0.2,0.5 -0.5,0.9 -0.7,1.4 h -1.6 c 0.1,-0.4 0.2,-0.9 0.2,-1.3 -0.6,0.3 -0.3,0.2 -0.7,0.6 -0.2,0.2 -0.6,0.4 -0.7,0.6 -0.1,0 -0.2,0 -0.3,0 -0.2,0 -0.2,-0.3 -0.2,-0.5 -0.2,0 -0.3,0 -0.5,0 -0.1,0 -0.8,0.3 -0.8,0.3 0,0 0,0 -0.1,0 0,0 -0.7,-0.5 -0.9,-0.6 -0.3,-0.1 -0.3,-0.6 -0.8,-0.6 -0.2,0 -0.6,0.2 -1.1,0.2 -0.4,0.5 -0.6,0.4 -0.9,0.7 0.2,0 0.3,0.1 0.5,0.2 0,0 0,0 0,0.1 -0.1,0.1 -0.1,0.3 -0.2,0.4 H 27.3 v 0 c -0.3,-0.1 -0.5,-0.1 -0.8,-0.2 0,-0.1 0,-0.2 0,-0.3 0,-0.2 0.1,-0.1 0.1,-0.3 0,-0.1 0,-0.2 -0.1,-0.2 -0.4,0 -0.8,0 -1.3,0 -0.8,-0.1 -1.5,-0.2 -2.3,-0.3 0,0.1 0,0.3 0.1,0.4 -0.3,-0.1 -0.8,0.1 -0.9,0.4 0.1,0 0.3,0.1 0.4,0.1 0,0.1 -0.1,0.3 -0.1,0.4 H 22 c -0.1,0 -0.1,0 -0.2,0 0,0 0,0 0,-0.1 -0.1,0 -0.1,0 -0.2,0 -0.3,0 -0.5,-0.6 -0.6,-0.8 -0.1,0 -0.1,0.1 -0.2,0.1 -0.4,-0.3 -0.3,-0.2 -0.6,-0.2 -0.1,0 -0.2,0 -0.3,0 -0.1,-0.5 -0.3,-0.6 -0.6,-1 -0.2,-0.3 -0.7,-0.4 -1,-0.7 -0.3,0.1 -0.4,0 -0.6,0 -0.2,0.1 -0.1,0.2 -0.5,0.1 -0.1,0 -0.2,0 -0.2,0 0,-0.1 0,-0.3 0,-0.4 -0.1,0.1 -0.3,0.1 -0.4,0.2 -0.1,0.2 -0.2,0.5 -0.3,0.7 -0.1,0 -0.1,0 -0.2,0 0.2,0.1 0.6,0.3 0.6,0.6 0,0.3 0,0.6 0,0.8 -0.5,0 -0.9,0 -1.4,0 0.1,0.2 0.1,0.1 0.2,0.3 0.1,0.3 0,0.3 -0.1,0.5 h -1 c -0.1,-0.1 -0.2,-0.2 -0.3,-0.4 0,0 0.1,-0.1 0,-0.2 -0.1,-0.3 -0.8,-0.6 -1.4,-1.5 0,0 0,0 0,0 -0.3,-0.3 -0.6,-0.6 -0.9,-0.9 -0.3,-0.7 -0.5,-1.3 -0.8,-2 0,0 0.1,0 0.1,0 0.1,0.1 0.2,0.2 0.3,0.4 0,0 0.3,-0.1 0.3,-0.1 0.2,0 0.1,0 0.3,0.1 -0.1,-0.2 -0.1,-0.1 -0.1,-0.3 0,-0.1 0,0 0,-0.1 0.2,0.1 0.5,0.2 0.7,0.4 0,0 0,0 0,-0.1 -0.2,-0.1 -0.3,-0.2 -0.5,-0.3 0.1,0 0.2,-0.1 0.3,-0.1 0.1,0 0.3,0.1 0.5,0.2 0.1,0.1 0.2,0.1 0.2,0.2 0.3,-0.1 0.5,-0.3 0.8,-0.5 -0.1,-0.1 -0.6,-0.9 -0.6,-0.9 0,-0.1 0,-0.2 0,-0.3 0,0 0,0 -0.1,0 -0.2,-0.2 -0.3,-0.5 -0.5,-0.7 0.1,0 0.2,0 0.2,-0.2 0,-0.1 -0.1,-0.1 -0.1,-0.3 0,-0.1 0,-0.1 0,-0.2 0.1,0 0.3,-0.1 0.4,-0.1 0,-0.1 0,-0.2 0,-0.3 -0.2,-0.1 -0.4,-0.2 -0.5,-0.3 0,-0.1 -0.1,-0.1 0,-0.3 0,-0.2 0.2,-0.1 0.4,-0.5 0.1,0.1 0.2,0.2 0.4,0.3 0,0 0,0 0,0 0.1,0 0.1,0 0.1,-0.1 0.1,-0.3 0.2,-0.6 0.3,-0.8 0.2,-0.1 0.4,-0.1 0.6,-0.2 0,-0.1 -0.1,-0.2 -0.1,-0.4 -0.5,-0.2 0.1,-1.1 0.6,-1.1 0,-0.1 0,-0.2 0.1,-0.3 0,0 0,0 0.1,0.1 0.2,-0.1 0.4,-0.3 0.6,-0.5 0.1,0 0.3,0 0.4,0 0.1,0 0.2,-0.1 0.4,-0.1 0.1,0.1 0.3,0.1 0.4,0.2 0.1,-0.2 0.2,-0.4 0.2,-0.5 0.2,0 0.4,0.1 0.7,0.2 0.1,0 0.1,0 0.2,0 0.4,0 0.7,0 1,-0.1 0,-0.2 0.1,-0.3 0.1,-0.5 0.4,-0.1 0.6,-0.5 0.9,-0.8 0.3,-0.3 0.6,0 1,-0.7 0.2,0 0.4,0 0.6,0 0.2,-0.3 0.3,-0.5 0.5,-0.8 0.1,0 0.2,0 0.4,0 0.4,0 0.9,0.3 0.9,0.8 -0.1,0 -0.2,0 -0.3,0 0,0 0,0.1 0,0.1 0.1,0 0.2,0 0.3,0 0,0.5 0.1,0.4 0.2,0.6 0,0 0,0.8 0,0.8 0,0.7 -0.1,1.1 -1,1 0,0 0,0 -0.1,0 -0.6,-0.1 -0.7,-0.9 -0.8,-1.2 -0.2,0.7 -0.8,0.5 -0.9,1 0,0.2 -0.1,0.3 -0.1,0.5 0.1,0 0.2,0 0.3,0 0,-0.3 -0.1,-0.1 -0.1,-0.4 0,-0.2 0.2,-0.2 0.4,-0.3 0,0.1 0.1,0.2 0.1,0.2 0,0.2 0.1,0.4 0.2,0.7 0,0 0.1,0 0.1,0 0,-0.1 0.1,-0.2 0.1,-0.3 0,0 0,0 0.1,0 0,0 0.1,-0.1 0.1,-0.2 0.2,0 0.3,0 0.5,0 0.2,0 0.3,0 0.5,0 0.1,0.1 0.2,0.2 0.2,0.2 0,0.1 0,0.1 0,0.2 0,0 0.1,0 0.1,0 0,-0.1 0,-0.1 0,-0.2 0.1,0 0.2,0 0.2,-0.1 0.1,0.1 0.2,0.1 0.3,0.2 0.2,-0.9 0.6,0.3 0.8,-0.8 0,0 0,0 0.1,0 0,0.2 -0.1,0.3 -0.1,0.5 -0.2,0 -0.4,0.1 -0.7,0.1 0.1,0.1 0.2,0.2 0.3,0.3 0,0 0,0 -0.1,0 -0.1,0 -0.2,0 -0.2,0.1 0.4,0 0.4,0 0.4,-0.3 0.1,0 0.2,0 0.3,0 0.3,0 0.2,0.1 0.3,0.3 0.1,-0.3 0.1,-0.4 0.5,-0.4 0,0 0,-0.1 0,-0.1 -0.1,0 -0.2,0 -0.2,0 0,0 -0.1,0 -0.1,0 0.2,-0.2 0.3,-0.3 0.5,-0.5 0,0 0,0 0,0.1 0.1,0.1 0.2,0.3 0.3,0.4 0,0.1 -0.1,0.1 -0.1,0.2 -0.2,0.1 -0.3,0.1 -0.5,0.2 0.1,0.1 0.2,0.2 0.4,0.3 0,0 0.1,0 0.2,0 0.1,-0.1 0,-0.2 0.3,-0.2 0.1,0 0.2,0 0.3,0 0.4,0 0.2,0.3 0.1,0.5 0.3,0.1 0.7,0.2 1,0.3 -0.1,0.1 -0.2,0.3 -0.3,0.4 0,0 0.1,0 0.2,0 0.1,-0.3 0.1,-0.3 0.3,-0.2 0,-0.1 0,-0.2 0,-0.3 0,-0.2 0.1,-0.2 0.1,-0.3 -0.1,-0.1 -0.1,-0.3 -0.2,-0.4 0.1,0 0.2,-0.1 0.2,-0.1 0.2,0.3 0.4,1 1,1.1 0,0.3 0.3,0.9 0.6,1 l 0.1,-0.1 c 0,-0.5 -0.3,-0.5 -0.3,-0.7 0,-0.1 0.4,-0.4 0.5,-0.6 0,-0.1 0,-0.2 -0.1,-0.3 0.2,-0.2 0.8,-0.3 0.9,-0.7 0,0 0,-0.1 0.1,-0.2 0.2,-0.1 0.4,-0.2 0.7,-0.4 0,0.1 0.1,0.3 0.2,0.4 -0.1,0 -0.2,0 -0.3,0 0.1,0.1 0.3,0.1 0.4,0.2 0,0.1 0,0.2 0,0.3 -0.2,0.2 -0.3,0.4 -0.5,0.6 0,0.2 0.1,0.3 0,0.5 0,0.2 -0.1,0.1 -0.1,0.3 -0.1,0.2 -0.2,0.5 -0.4,0.7 0,0.1 0.2,0.6 0.2,0.7 0,0.4 -0.9,0.8 -1.2,1 0.9,0 0.8,-0.4 1.3,-0.6 0,-0.2 0,-0.4 0.1,-0.6 0.1,0 0.3,-0.1 0.4,-0.1 0.3,0 0.3,0.3 0.5,0.5 -0.1,-0.2 -0.2,-0.4 -0.3,-0.6 -0.2,0 -0.2,0.1 -0.3,0 -0.1,0 -0.2,-0.1 -0.2,-0.2 0.1,-0.5 0.3,-1 0.4,-1.5 0,0 -0.1,0 -0.1,0 0.1,-0.4 0.3,0 0.5,-0.3 0,0 0.1,-0.4 0.2,-0.5 -0.1,-0.1 -0.1,-0.1 -0.2,-0.2 0.5,-0.2 0.4,0.5 0.2,0.7 0.1,0 0.2,0.1 0.3,0.1 0.2,-0.1 0.3,-0.1 0.5,-0.2 0.1,0.1 0.2,0.2 0.3,0.4 0.1,0.1 0.3,0.2 0.5,0.2 0,0 0,-0.1 0,-0.1 -0.2,-0.1 -0.3,-0.2 -0.5,-0.3 0.1,-0.1 0.2,-0.2 0.2,-0.3 0,-0.2 -0.1,-0.1 -0.1,-0.3 0,-0.2 0.1,-0.2 0.2,-0.3 1.2,0 1.1,0.3 1.2,-0.4 0,-0.5 1.4,-0.7 1.2,-1 0.1,0 0.3,0.1 0.4,0.1 0,0 0,-0.1 0,-0.2 0.1,0 0.2,0 0.3,0 0,0.1 0,0.1 0,0.2 0.5,-0.3 0,-0.4 0.6,-0.4 0,-0.1 0,-0.2 0,-0.4 0,-0.1 0.3,-0.6 0.4,-0.6 0.2,0 0.3,0.1 0.5,0.2 0,0.1 -0.1,0.1 -0.2,0.2 0.3,0 0.3,0 0.4,0.2 0.1,0 0.2,0.1 0.3,0.1 0.1,0 0.1,-0.1 0.2,-0.1 -0.1,0 -0.2,-0.1 -0.3,-0.2 0.1,0 0.2,0 0.4,-0.1 0.2,0.1 0.4,0.2 0.6,0.4 0.4,0.3 0,0.4 0.5,0.5 0,0.9 -0.5,0.7 -0.6,1.1 0.6,-0.1 1.2,-0.2 1.8,-0.3 0,0.1 0,0.1 0,0.2 0.3,0 0.6,-0.1 0.8,-0.1 0,-0.1 0,-0.2 0,-0.3 0,-0.2 -0.1,-0.2 -0.2,-0.3 0.2,0 0.4,0 0.5,0 0.1,-0.1 0.1,-0.1 0.3,-0.1 0.1,0 0.2,0 0.3,0 0.5,0 0.4,1 1.4,1 -0.1,-0.7 -0.8,-0.7 0.2,-0.6 0,-0.1 0.1,-0.2 0.1,-0.3 0.1,0 0.2,0 0.3,0 0.3,0 0,0 0.3,0 -0.1,-0.1 -0.1,-0.2 -0.2,-0.3 0.1,0 0.2,0 0.3,0 0,0 0,-0.1 0,-0.1 0,0 -0.1,0 -0.1,0 0,-0.1 0,-0.2 0,-0.3 -0.1,0 -0.2,0 -0.3,0.1 0,-0.4 0.1,-0.2 0.1,-0.3 0,-0.2 0,-0.1 -0.1,-0.2 0.2,-0.1 0.5,-0.3 0.7,-0.4 0.1,0 0.2,0 0.2,0.1 0,0 -0.1,-0.1 -0.1,-0.1 0.2,-0.1 0.4,-0.2 0.7,-0.4 0,0.1 0.1,0.1 0.1,0.2 0.3,0 0.6,-0.1 0.9,-0.1 0.2,-0.4 0,-1.6 1.2,-0.9 l 0.1,-0.1 c 0.3,0 0.3,0.2 0.6,0.2 -0.2,-0.2 -0.4,-0.4 -0.5,-0.6 0.1,-0.3 0.3,-0.3 0.3,-0.6 0,-0.4 -0.4,-0.7 0.2,-0.4 0.1,0 0.2,-0.1 0.3,-0.2 1.2,0.7 3.1,1.6 5,2.6 z m -26.9,2.3 c 0.2,-0.1 0.3,-0.2 0.5,-0.3 0.2,-0.1 0.2,0 0.5,-0.2 0.4,-0.4 0.4,-0.2 0.9,-0.5 0.4,-0.3 1.9,0.1 2,-0.6 0,-0.1 0,-0.1 0,-0.2 -0.4,-0.1 -0.1,-0.1 -0.4,-0.2 -0.3,0 -0.2,0.2 -0.5,0.2 -0.1,0 -0.1,0 -0.2,0 -0.3,0 -0.2,-0.1 -0.5,-0.2 0,0 0,0.1 0,0.1 -0.1,0 -0.2,0 -0.4,0 -0.2,0 -0.5,0.2 -0.7,0.1 -0.1,0.6 -0.9,0.4 -0.9,0.9 -0.1,0 -0.2,0 -0.3,0.1 0,0 0,0.1 0,0.1 -0.1,0 -0.3,-0.1 -0.4,-0.1 0,0 0,0 0.1,0 -0.1,0.1 -0.2,0.3 -0.3,0.4 0,0 0,0 0,-0.1 -0.2,0 -0.3,0 -0.5,0.1 0,0 0,0 0,0.1 0.1,0.2 0.2,0.3 0.3,0.5 0,0 0,0 0.1,0 0,0 0,0.1 0,0.1 -0.1,0 -0.2,-0.1 -0.3,-0.1 0.1,0.9 0.2,0.5 0.5,1 0.3,-0.1 0.6,-0.1 0.6,-0.3 0,-0.2 0,-0.2 -0.1,-0.3 -0.2,-0.3 -0.1,-0.4 0,-0.6 z m 8.2,-4 c 0,0 -0.1,0 0,0 -0.2,-0.1 -0.3,-0.2 -0.4,-0.3 0,0 0,0 0,0 -0.4,0 -0.4,0.3 -0.6,0.6 0,0.1 0.1,0.1 0.1,0.2 -0.1,0 -0.1,0 -0.2,0 0,0.1 0,0.2 0,0.3 0.1,0 0.2,0 0.3,0 0.1,0.4 0.1,0.7 0.7,0.7 0.3,0 0.1,-0.7 0.1,-1.1 -0.1,0 -0.2,-0.1 -0.3,-0.1 0.1,0 0.2,-0.1 0.3,-0.3 z m 7.5,0.9 c 0.5,0 0.7,-0.2 0.8,-0.6 -0.1,-0.1 -0.1,-0.2 -0.3,-0.2 0,0 0,0 -0.1,0 -0.2,0 -0.4,0.2 -0.4,0.3 -0.1,0 -0.1,-0.1 -0.2,-0.1 0,0.1 0.1,0.2 0.1,0.3 -0.3,-0.1 -0.1,-0.1 -0.4,-0.1 0,0 -0.1,0 -0.1,0 -0.2,0 -0.5,0.1 -0.4,0.4 -0.1,0 -0.2,0 -0.4,-0.1 0,0.1 -0.1,0.2 -0.1,0.3 0.1,0.1 0.2,0.3 0.3,0.4 -0.1,0 -0.2,0 -0.4,-0.1 0,0.1 0,0.2 0,0.4 0.1,0 0.2,0 0.4,0 0.1,0.1 0.1,0.1 0.3,0.1 0.1,0 0.1,0 0.2,0 0.3,0 0.6,-0.8 0.7,-1 z"
   id="path6"
   inkscape:label="path6"
   style="display:inline" />
	<path
   class="st2"
   d="m 9.9,59.5 v 0 c 0.9,-0.3 1.8,-0.6 2.7,-0.9 0.8,-2.1 1.6,-4.2 2.7,-6.2 -1.2,0.4 -2.3,0.9 -3.5,1.5 v 0 0 0 C 10.4,54.5 9.1,55.4 7.7,56.2 7.1,57.3 6.5,58.5 6,59.6 H 5.9 L 5.8,59.5 c 0.5,-1 0.9,-2 1.5,-3 -0.4,0.3 -0.8,0.6 -1.3,0.9 -0.6,0.4 -1.1,0.8 -1.7,1.2 v 0 0 L 4.2,58.5 c 0.1,-0.1 0.1,-0.2 0.2,-0.3 0.5,-0.3 1,-0.7 1.4,-1 C 6.4,56.8 7,56.4 7.6,56 7.7,55.5 8,55 8.3,54.5 8.8,53.6 9.3,52.7 9.9,51.8 9.6,52 9.3,52.2 9,52.3 H 8.9 L 8.8,52.2 C 8.9,52.1 9,52 9.1,51.9 c 0.4,-0.2 0.7,-0.4 1.1,-0.6 0.2,-0.4 0.5,-0.8 0.8,-1.2 0.1,-0.1 0.3,-0.3 0.5,-0.4 l 0.1,0.1 c -0.3,0.4 -0.5,0.8 -0.8,1.2 1.8,-1 3.6,-1.8 5.5,-2.6 0.7,-0.3 1.3,-0.5 2,-0.8 0.8,-1.1 1.7,-2.2 2.6,-3.2 -1.3,0.4 -2.6,0.8 -3.9,1.4 v 0 0 -0.1 c 0.3,-0.2 0.6,-0.3 0.8,-0.5 1.2,-0.4 2.3,-0.8 3.5,-1.2 0.3,-0.3 0.6,-0.7 1,-1 0.1,0 0.2,-0.1 0.4,-0.1 l 0.1,0.1 c -0.3,0.3 -0.6,0.6 -0.8,0.9 0.1,0 0.3,-0.1 0.4,-0.1 1.8,-0.5 3.7,-0.9 5.6,-1.1 1,-0.1 2,-0.3 3,-0.4 0.4,-0.6 0.9,-1.2 1.4,-1.8 h 0.2 l 0.1,0.1 c -0.4,0.5 -0.9,1.1 -1.3,1.7 4,-0.3 8.1,-0.2 12,0.3 C 43,42 42.7,41.4 42.3,40.8 l 0.1,-0.1 h 0.2 c 0.4,0.6 0.8,1.2 1.2,1.9 3.1,0.4 6.1,1.1 9.1,2 -0.1,-0.1 -0.2,-0.2 -0.3,-0.4 L 52.8,44 c 0.2,0.2 0.4,0.5 0.6,0.7 0.8,0.3 1.7,0.5 2.5,0.8 0.2,0.1 0.5,0.3 0.7,0.4 V 46 c -0.9,-0.3 -1.8,-0.7 -2.8,-0.9 0.8,1.1 1.6,2.1 2.2,3.2 2.4,0.9 4.7,2 7,3.2 -0.2,-0.3 -0.4,-0.6 -0.6,-1 l 0.1,-0.1 c 0.2,0.2 0.3,0.3 0.5,0.5 0.2,0.3 0.4,0.6 0.6,0.9 0.2,0.1 0.5,0.3 0.7,0.4 0.1,0.1 0.2,0.3 0.4,0.4 l -0.1,0.1 c -0.2,-0.1 -0.4,-0.2 -0.6,-0.4 0.6,0.9 1.1,1.9 1.6,2.8 0.2,0.5 0.5,0.9 0.7,1.4 1,0.7 2,1.4 2.9,2.1 0.1,0.1 0.2,0.3 0.2,0.4 l -0.1,0.1 c -0.8,-0.7 -1.8,-1.4 -2.7,-2.1 0.4,0.8 0.8,1.7 1.2,2.5 l -0.1,0.1 h -0.2 c -0.4,-1 -0.9,-1.9 -1.4,-3 -2.3,-1.5 -4.8,-2.8 -7.5,-3.9 0.8,1.9 1.5,3.8 2.1,5.7 0.9,0.3 1.9,0.7 2.8,1 l -0.1,0.1 H 63 c -0.7,-0.3 -1.4,-0.6 -2.2,-0.8 0.1,0.3 0.1,0.5 0.2,0.8 h -0.1 -0.2 c -0.1,-0.3 -0.2,-0.6 -0.3,-0.9 -3.8,-1.3 -7.9,-2.2 -12.3,-2.7 0.2,1.2 0.4,2.4 0.6,3.7 H 48.5 48.3 C 48.1,58.3 47.9,57.1 47.7,55.9 40.6,55 33,55 25.7,56 c -0.3,1.2 -0.5,2.3 -0.8,3.6 h -0.2 -0.2 c 0.2,-1.2 0.5,-2.4 0.7,-3.5 H 25 c -2.6,0.4 -5.2,0.8 -7.7,1.5 -1.6,0.4 -3.1,0.8 -4.6,1.3 -0.1,0.3 -0.2,0.5 -0.3,0.8 h -0.2 -0.1 c 0.1,-0.2 0.1,-0.4 0.2,-0.6 -0.7,0.2 -1.4,0.4 -2,0.7 z m 3.1,-1 c 1.4,-0.4 2.9,-0.8 4.4,-1.2 2.5,-0.6 5.1,-1.1 7.7,-1.5 h 0.3 c 0.5,-2.3 1.2,-4.4 1.9,-6.3 -2.5,0.4 -5,0.9 -7.4,1.5 -1.4,0.4 -2.8,0.8 -4.2,1.3 -1.1,2 -2,4.1 -2.7,6.2 z m 12.8,-2.8 c 7.3,-0.9 14.8,-1 21.7,-0.1 -0.4,-2.2 -0.8,-4.3 -1.4,-6.1 -5.7,-0.9 -11.7,-1 -17.6,-0.3 -0.3,0 -0.6,0.1 -0.9,0.1 -0.6,2 -1.3,4.1 -1.8,6.4 z m 22,0 c 4.4,0.6 8.5,1.5 12.3,2.7 -0.6,-1.9 -1.3,-3.8 -2.1,-5.7 -3.6,-1.4 -7.4,-2.4 -11.5,-3 0.5,1.7 0.9,3.7 1.3,6 z M 8,55.6 c 1.2,-0.8 2.4,-1.5 3.6,-2.1 v 0 0 0 c 1.3,-0.6 2.5,-1.1 3.8,-1.6 0.2,-0.4 0.5,-0.8 0.7,-1.2 0.5,-0.9 1.1,-1.8 1.7,-2.7 -0.5,0.2 -1,0.4 -1.6,0.6 -2,0.8 -4,1.8 -6,2.8 -0.7,1.1 -1.3,2.2 -1.9,3.2 0.1,0.4 -0.1,0.7 -0.3,1 z m 8,-3.8 c 1.3,-0.4 2.5,-0.8 3.8,-1.2 2.5,-0.7 5,-1.2 7.6,-1.5 0.1,-0.3 0.2,-0.5 0.3,-0.8 0.4,-1.1 0.9,-2.1 1.3,-3 -1.7,0.2 -3.3,0.5 -4.9,0.9 -1.9,0.4 -3.8,1 -5.6,1.7 -0.7,1 -1.4,2 -2,3.1 -0.2,0.2 -0.4,0.5 -0.5,0.8 z M 27.8,49 c 0.2,0 0.5,-0.1 0.7,-0.1 5.9,-0.7 11.8,-0.6 17.5,0.2 -0.1,-0.3 -0.2,-0.7 -0.3,-1 -0.3,-0.9 -0.6,-1.8 -0.9,-2.7 -5.1,-0.8 -10.3,-0.9 -15.4,-0.3 -0.5,1 -1,2 -1.4,3.2 -0.1,0.3 -0.1,0.5 -0.2,0.7 z m 18.6,0.2 c 4,0.6 7.8,1.6 11.4,3 -0.1,-0.2 -0.2,-0.3 -0.2,-0.5 -0.5,-1.1 -1.1,-2.2 -1.8,-3.2 -3.5,-1.3 -7,-2.3 -10.5,-2.9 0.3,0.8 0.6,1.6 0.9,2.5 0,0.4 0.1,0.8 0.2,1.1 z m 11.8,3.2 c 2.7,1 5.2,2.3 7.4,3.8 -0.1,-0.3 -0.3,-0.6 -0.5,-0.9 -0.6,-1.1 -1.2,-2.1 -1.9,-3.2 -2.3,-1.3 -4.7,-2.4 -7,-3.3 0.6,1 1.1,1.9 1.6,2.9 0.1,0.2 0.3,0.4 0.4,0.7 z m -39.4,-5 c 1.7,-0.6 3.5,-1.1 5.2,-1.5 1.7,-0.4 3.5,-0.7 5.2,-1 0.5,-0.9 0.9,-1.7 1.5,-2.5 -0.9,0.1 -1.8,0.2 -2.8,0.3 -1.9,0.3 -3.7,0.7 -5.5,1.1 -0.3,0.1 -0.6,0.2 -0.9,0.3 -1,1.2 -1.9,2.2 -2.7,3.3 z m 10.8,-2.5 c 5,-0.6 10,-0.5 15,0.3 -0.4,-0.9 -0.7,-1.7 -1.1,-2.4 -4.1,-0.6 -8.3,-0.7 -12.4,-0.3 -0.5,0.7 -1,1.5 -1.5,2.4 z m 15.5,0.4 c 3.5,0.6 7,1.5 10.4,2.8 C 54.8,47 54.1,46 53.2,44.9 50.2,44 47.1,43.3 44,42.8 c 0.3,0.8 0.7,1.6 1.1,2.5 z"
   id="path8"
   inkscape:label="path8"
   style="display:inline" />
	<linearGradient
   id="SVGID_1_"
   gradientUnits="userSpaceOnUse"
   x1="36.486198"
   y1="52.3116"
   x2="36.486198"
   y2="0.41819999">
		<stop
   offset="0"
   style="stop-color:#ED5342"
   id="stop10" />
		<stop
   offset="0.5"
   style="stop-color:#62C1ED"
   id="stop12" />
		<stop
   offset="1"
   style="stop-color:#FFFFFF"
   id="stop14" />
	</linearGradient>
	<path
   class="st3"
   d="m 16.5,26.8 v 0 l 0.3,1.2 v 0 c 0.1,0.4 0.2,0.8 0.3,1.1 0.6,2.2 -0.1,5.5 -0.9,7.7 L 22,42 21.4,42.4 c -0.4,0.2 -0.8,0.5 -1.2,0.7 -1.5,0.9 -3.1,1.7 -4.7,2.6 -2.1,1.1 -4.2,2.5 -6.1,4 -0.9,0.7 -1.8,1.4 -2.6,2.2 L 6.3,52.3 5.9,51.8 C 5.2,50.8 2.6,46.9 2.8,45.8 3,44.8 4,44.3 4.1,44 4.1,43.7 3.2,41.8 3.1,41.3 2.9,40.7 2.7,40 2.6,39.4 2.3,36.2 2,33 1.6,29.9 1.5,29 1.4,28.5 1,27.7 0.6,26.6 0.5,25.6 0.5,24.4 c 0,-1 0,-2.1 0.3,-3 C 0.8,20.8 1,20.4 1.2,20 1.3,19.9 1.3,19.7 1.3,19.6 1.4,18.3 2,14.4 2.6,13.3 3.2,12.3 3.8,11.2 4.4,10.2 4.8,9.6 5.2,9 5.6,8.4 5.9,8 6.2,7.4 6.5,7.2 7.2,6.6 7.8,5.9 8.4,5.2 v 0 0 C 8.7,4.9 9,4.6 9.2,4.3 9.5,3.8 10.9,2.8 11.4,2.5 12.1,2 12.9,1.5 13.6,0.9 L 14.1,0.5 14.4,1 c 0.7,1.5 0.9,3.5 0.5,5 -0.4,1.6 -2,3.1 -3.5,3.8 -0.3,1 -0.5,2.1 -0.8,3.1 -0.2,1 -1,1.9 -1.9,2.5 0.4,0.7 0.6,1.6 0.8,2.4 0.1,0.9 0,1.8 0,2.7 -0.1,0.8 -0.2,1.9 -0.1,2.7 0,0 0,0.2 0.1,0.3 0.1,-0.2 0.2,-0.6 0.2,-0.7 0.2,-2 0.2,-4.7 1,-6.6 0.2,-0.6 0.5,-1.1 0.8,-1.6 0.8,-1.2 2.3,-3 3.8,-1.8 0.1,0.1 0.2,0.2 0.3,0.3 0.7,0.9 0.8,2.1 0.8,3.1 0,1.4 -0.2,2.8 -0.4,4.2 -0.1,2.5 0.1,4.4 0.5,6.4 z m 1.3,1.4 0.4,1.2 v 0 c 0.7,0.1 1.3,0.1 2,0 0.2,0 0.3,0 0.5,-0.1 -0.1,1.2 -0.1,2.4 -0.1,3.6 0,1.5 0.1,5.9 1.3,6.8 0.2,0.2 0.5,0.3 0.7,0.3 1.7,0 2.1,-3.3 2.2,-4.4 0.1,-1.3 0.3,-2.7 0.6,-4 0,-0.3 0.2,-1 0.4,-1.5 0.3,0.6 0.7,1.5 0.8,1.8 0.2,0.5 0.4,1.1 0.5,1.6 0.1,0.6 0.2,1.3 0.3,2 0.1,0.8 0.2,2.9 0.7,3.5 0.2,0.2 0.4,0.3 0.7,0.4 1.8,0.4 2,-3.2 2,-4.2 0,-0.2 0,-0.5 0,-0.8 0.2,0.1 0.4,0.2 0.6,0.3 0,0 0.1,0 0.1,0 -0.1,0.3 -0.4,0.8 -0.5,1 -0.4,0.7 -0.5,1.9 -0.5,2.7 v 0.1 0.1 c 0.2,0.6 0.9,1 1.6,0.9 1.1,-0.2 1.5,-2.3 2.1,-3.1 0,-0.1 0.1,-0.2 0.2,-0.3 0.1,0.1 0.1,0.2 0.2,0.2 0.2,0.3 0.6,1.1 0.7,1.5 0.2,0.5 0.4,1.1 0.7,1.6 0.2,0.3 0.5,0.6 0.8,0.6 0.8,-0.1 1,-1.2 1,-1.8 0,-2.7 0,-2.3 0,-3.3 0.2,0 0.3,0 0.5,-0.1 -0.1,0.7 -0.1,1.4 -0.1,2.1 0,0.6 0,1.2 0,1.8 0,0.4 0.1,0.9 0.5,1.1 0.2,0.2 0.5,0.2 0.8,0.2 0.7,-0.1 1.2,-1.3 1.5,-1.9 0.5,-1.1 0.9,-2.2 1.4,-3.4 0.5,-1.2 0.9,-2.4 1.4,-3.6 0.4,-1 0.8,-2.1 1.3,-3.1 0.2,-0.5 0.5,-1.1 0.9,-1.4 0.1,-0.1 0.3,-0.2 0.5,-0.2 0.4,0 1,0.9 1.2,1.3 0.3,0.5 0.6,1.3 0.8,1.9 0.3,1 0.6,2 0.9,3 0.2,0.9 0.5,1.9 0.7,2.8 0.1,0.7 0.3,1.4 0.4,2 0.1,0.8 0.3,2.4 1.3,2.5 0.5,0.1 1,-0.3 1.3,-0.7 0.8,-0.9 0.8,-5.3 0.9,-6.5 0,-1.1 0,-2.2 0,-3.3 0,-0.8 -0.1,-1.7 -0.3,-2.5 -0.1,-0.7 -0.4,-1.4 -0.7,-2.1 0,0 0,0 0.1,0 0.5,0.2 0.9,0 1.3,-0.3 0.4,-0.4 0.7,-1 0.8,-1.6 0.7,-2.8 1,-7.8 -0.3,-10.4 -1.1,-2.2 -4,-3.4 -6.2,-3.9 0,-0.1 0.1,-0.2 0.1,-0.3 0.7,-0.8 1.1,-1.8 1.1,-2.8 0,-2.3 -1.8,-4.2 -4.1,-4.2 -2.3,0 -4.1,1.9 -4.1,4.2 0,0.8 0.2,1.7 0.7,2.4 0.2,0.2 0.4,0.8 0,0.9 -0.8,0.3 -1.5,0.8 -2,1.5 -1.5,1.8 -1.3,4.1 -2.2,6.2 -0.6,1.4 -1.3,3.5 -2.3,4.7 -0.1,0.1 -0.2,0.2 -0.3,0.3 -0.3,-0.6 -0.7,-1.2 -1.2,-1.7 -1.2,-1.2 -1.5,-2 -1.9,-3.6 -0.2,-0.8 -0.6,-1.6 -1,-2.3 -0.4,-0.6 -1.7,-2.7 -2.3,-3 -0.3,-0.1 -0.6,-0.3 -0.9,-0.4 0,0 -0.1,0 -0.1,0 0,-0.1 0.2,-0.4 0.2,-0.4 0.7,-0.7 1.1,-1.7 1.1,-2.7 0,-2 -1.6,-3.8 -3.7,-3.8 -2.1,0 -3.8,1.5 -3.8,3.6 0,1 0.4,1.9 1,2.6 v 0 c -2.2,0.6 -3.3,1.8 -4.3,3.9 -1.2,2.5 -1.2,5.4 -0.8,8.1 0.2,1 0.9,2.6 1.5,3.6 L 17.9,28 Z M 52,23 c 0,-0.1 -0.1,-0.2 -0.2,-0.4 -0.6,-1.2 -1.4,-2.9 -1.6,-4.3 0,-0.3 -0.2,-1.2 -0.1,-1.8 0.1,0.2 0.2,0.3 0.4,0.5 0.7,0.8 0.9,1.3 1.1,2.4 0.2,0.9 0.3,1.8 0.4,2.8 -0.1,0.2 0,0.5 0,0.8 z m -12.9,7.7 c -0.1,-0.8 -0.4,-1.6 -0.8,-2.2 -0.2,-0.3 -0.6,-0.5 -1,-0.7 0.4,-0.5 0.6,-1.1 0.6,-1.7 0,-0.8 -0.3,-1.5 -0.8,-2 0.4,-0.2 0.9,-0.5 1.2,-0.8 0.6,-0.5 1.3,-1.2 1.9,-1.8 0.3,-0.3 0.5,-0.5 0.8,-0.8 0,0.4 -0.1,0.8 -0.1,1.2 -0.1,1.3 -0.5,2.9 -0.7,4.2 -0.3,1.4 -0.6,2.8 -0.9,4.2 -0.1,0.2 -0.1,0.3 -0.2,0.4 z m -8.2,-1.2 c 0,-0.2 0,-0.4 0,-0.6 l 0.4,-0.3 c 0.8,-0.7 0.6,-0.8 0.3,-1.7 0,-0.1 0,-0.7 0,-0.8 0,-0.6 0,-1.1 -0.2,-1.6 -0.3,-1 -0.6,-2.1 -0.8,-3.1 0.1,0.1 0.2,0.3 0.3,0.4 0.6,0.8 1.3,1.6 2.1,2.2 -0.6,0.5 -1,1.3 -1,2.1 0,0.7 0.3,1.4 0.8,1.9 -0.9,0.4 -1.5,0.9 -1.9,1.5 z m 25.6,-2.7 c 0.4,-2 0.6,-3.9 0.3,-6.2 -0.1,-1.4 -0.4,-2.8 -0.4,-4.2 0,-1.1 0.1,-2.3 0.8,-3.1 0.1,-0.1 0.2,-0.2 0.3,-0.3 1.5,-1.3 3.1,0.6 3.8,1.8 0.3,0.5 0.6,1 0.8,1.6 0.8,1.8 0.8,4.6 1,6.6 0,0.2 0.1,0.5 0.2,0.7 0,-0.1 0.1,-0.2 0.1,-0.3 0.2,-0.8 0,-1.9 -0.1,-2.7 -0.1,-0.9 -0.2,-1.8 0,-2.7 0.1,-0.7 0.4,-1.6 0.8,-2.4 C 63.3,15 62.5,14 62.2,13.1 62,12.1 61.7,11 61.4,10 59.9,9.3 58.4,7.8 57.9,6.2 57.5,4.7 57.7,2.6 58.4,1.2 L 58.7,0.6 59.2,1 c 0.7,0.5 1.5,1 2.2,1.6 0.5,0.4 1.9,1.3 2.2,1.8 0.2,0.3 0.5,0.7 0.8,0.9 v 0 0 c 0.6,0.7 1.2,1.4 1.9,2 0.3,0.3 0.7,0.8 0.9,1.2 0.4,0.6 0.8,1.2 1.2,1.8 0.6,1 1.3,2.1 1.8,3.1 0.6,1.1 1.1,5 1.3,6.3 0,0.2 0,0.3 0.1,0.4 0.2,0.5 0.4,0.8 0.5,1.3 0.3,0.9 0.3,2.1 0.3,3 0,1.2 -0.1,2.2 -0.5,3.3 -0.3,0.8 -0.5,1.4 -0.6,2.2 -0.4,3.2 -0.7,6.4 -1,9.5 -0.1,0.7 -0.3,1.3 -0.5,1.9 -0.2,0.4 -1,2.3 -1,2.7 0,0.3 1,0.8 1.1,1.8 0.1,1.1 -2.4,4.9 -3.1,6 L 66.5,52.3 66,51.9 C 65.2,51.1 64.3,50.4 63.4,49.7 61.5,48.2 59.5,46.8 57.3,45.7 55.7,44.9 54.2,44 52.6,43.1 52.2,42.9 51.8,42.7 51.4,42.4 L 51,42 56.9,36.8 C 56.1,34.6 55.4,31.3 56,29.1 56.1,28.7 56.2,28.3 56.3,28 v 0 z"
   id="path17"
   style="display:inline;fill:url(#SVGID_1_)"
   inkscape:label="path17" />
	<linearGradient
   id="SVGID_2_"
   gradientUnits="userSpaceOnUse"
   x1="36.499599"
   y1="51.887501"
   x2="36.499599"
   y2="0.82590002">
		<stop
   offset="0.2"
   style="stop-color:#ED5342"
   id="stop19" />
		<stop
   offset="0.6"
   style="stop-color:#62C1ED"
   id="stop21" />
		<stop
   offset="0.8"
   style="stop-color:#FFFFFF"
   id="stop23" />
	</linearGradient>
	<path
   class="st4"
   d="m 66.3,51.7 c 0,0 -4.1,-3.8 -8.7,-6.2 C 52.9,43 51.8,42.3 51.8,42.3 L 51.4,42 51.7,41.8 57.2,37 c -0.3,-0.9 -1.7,-4.9 -1,-7.7 0.4,-1.5 0.7,-2.9 0.9,-4.3 0.2,-1.4 0.2,-2.8 0,-4.4 v 0 c 0,-0.3 -0.1,-0.7 -0.1,-1 -0.3,-3 -0.6,-5.3 0.7,-6.4 0.1,-0.1 0.3,-0.2 0.4,-0.2 0.4,-0.2 0.8,-0.1 1.2,0.1 0.4,0.2 0.7,0.5 1.1,0.9 0.6,0.7 1.2,1.7 1.5,2.5 v 0 0 c 0.6,1.4 0.8,4 0.9,5.5 0,0.4 0,0.7 0.1,0.9 v 0 c 0,0.4 0.2,0.8 0.4,1 0,0 0.1,0.1 0.1,0.1 0,0 0,0 0,0 v 0 c 0.1,-0.1 0.2,-0.2 0.2,-0.6 v 0 0 0 c 0.1,-0.7 0,-1.6 -0.1,-2.6 -0.1,-1 -0.2,-1.9 -0.1,-2.8 0.2,-1.2 0.6,-2.1 0.8,-2.5 C 63.7,15.2 62.5,14.2 62.2,13 61.9,11.7 61.5,10.2 61.4,9.7 60.8,9.4 58.5,8.2 58,6 57.3,3.5 58.4,1.2 58.4,1.2 L 58.5,0.9 59.2,1 c 0,0 3.9,2.7 4.3,3.3 0.3,0.5 0.8,1 0.8,1 v 0 0 c 0,0 1.2,1.4 1.9,2 v 0 c 0.1,0.1 0.3,0.3 0.4,0.5 0.2,0.2 0.4,0.5 0.6,0.8 1.1,1.6 2.5,4.1 2.9,4.7 v 0 0 c 0.1,0.1 0.1,0.3 0.2,0.6 0.1,0.2 0.1,0.5 0.2,0.8 0.4,1.6 0.7,3.9 0.8,4.7 0,0.4 0.2,0.7 0.4,1 0.3,0.6 0.6,1.5 0.5,3.7 0,2.1 -0.3,2.7 -0.6,3.3 -0.2,0.5 -0.4,1 -0.5,2.2 v 0 c -0.2,2 -0.5,4.9 -0.8,7.1 -0.1,1 -0.2,1.9 -0.2,2.4 v 0 0 0 c -0.1,1 -0.6,2.1 -1,3.1 -0.3,0.7 -0.6,1.3 -0.5,1.5 v 0 c 0,0.2 0.2,0.4 0.4,0.6 0.3,0.3 0.7,0.7 0.7,1.3 0.1,1 -3.1,5.8 -3.1,5.8 l -0.2,0.3 z M 21,29.3 c 0,0.2 0,0.4 0,0.6 0,1 -0.1,2.2 0,3.1 0,1 0.1,2.5 0.3,3.8 0.2,1.3 0.4,2.5 0.9,2.9 0.1,0.1 0.2,0.2 0.4,0.2 0.3,0.1 0.6,0 0.8,-0.2 0.2,-0.2 0.4,-0.5 0.6,-0.9 0.3,-0.7 0.6,-1.7 0.7,-3 v 0 c 0,-0.4 0.1,-0.8 0.1,-1.3 0,-0.4 0.1,-0.8 0.2,-1.2 0.3,-1.8 0.6,-3.2 0.8,-3.6 0,0 0,0 0,0.1 v 0 c 0.1,0.1 0.3,0.4 0.4,0.7 0.5,0.9 1.1,2.3 1.3,3.3 v 0 0 c 0.1,0.6 0.2,1.5 0.3,2.2 0.1,1.4 0.3,2.7 0.6,3.1 0.1,0.1 0.3,0.2 0.4,0.3 v 0 c 0.2,0.1 0.4,0.1 0.7,-0.1 0.2,-0.1 0.4,-0.3 0.5,-0.7 0.3,-0.6 0.5,-1.6 0.6,-3.2 0.2,-3.5 0.1,-5.9 0.1,-6.4 l 0.5,-0.4 v 0 h 0.1 c 0.3,-0.2 0.4,-0.3 0.4,-0.5 0,-0.1 0,-0.2 -0.1,-0.4 0,-0.1 -0.1,-0.2 -0.1,-0.4 v 0 0 c 0,-0.1 0,-0.4 0,-0.7 0,-0.5 0,-1.1 -0.2,-1.8 v 0 0 0 C 31.2,24.5 31.1,24.2 31,23.9 30.9,23.6 30.9,23.3 30.8,23 v 0 c -0.2,-1 -0.4,-1.8 -0.6,-2.5 0.3,0.4 0.7,0.9 1.1,1.4 v 0 c 0.5,0.7 1.3,1.6 2.1,2.2 0.1,0 0.1,0.1 0.2,0.1 -0.1,0 -0.1,0.1 -0.2,0.1 v 0 0 0 c -0.1,0.1 -0.2,0.1 -0.2,0.2 -0.1,0.1 -0.1,0.2 -0.2,0.2 -0.3,0.4 -0.5,1 -0.5,1.5 v 0 0 c 0,0.4 0.1,0.8 0.3,1.1 v 0 c 0,0.1 0.1,0.1 0.1,0.2 v 0 c 0.2,0.3 0.4,0.5 0.6,0.7 h -0.1 c -0.8,0.3 -1.4,0.6 -1.8,1.1 -0.4,0.5 -0.6,1.1 -0.7,2.1 v 0.1 0 c 0,0.1 0,0.3 0,0.5 v 0 c 0,0.1 0,0.3 0,0.5 0,0.8 0,1.5 0.1,1.7 0.1,0.3 0.4,0.4 0.7,0.5 0.1,0 0.3,0.1 0.3,0.1 0,0.3 -0.1,0.4 -0.3,0.8 v 0 c -0.1,0.1 -0.1,0.2 -0.2,0.4 -0.5,0.8 -0.4,2.6 -0.4,2.6 v 0 0 c 0,0 0.3,0.9 1.3,0.8 0.6,-0.1 0.9,-0.9 1.3,-1.7 0.2,-0.5 0.4,-0.9 0.6,-1.3 0.3,-0.5 0.4,-0.6 0.5,-0.5 0.1,0 0.2,0.2 0.3,0.3 v 0 l 0.1,0.1 v 0 0 c 0.2,0.3 0.5,1 0.8,1.8 0.2,0.5 0.4,1 0.6,1.3 0.1,0.2 0.2,0.3 0.4,0.4 0.1,0.1 0.3,0 0.4,0 0.1,-0.1 0.2,-0.2 0.3,-0.3 0.2,-0.3 0.3,-0.7 0.3,-1.2 v 0 0 c 0,-0.5 0,-1.3 0,-1.9 0,-0.7 0,-1.4 0,-1.5 0,0 0,0 0,0 0.2,0 0.4,0 0.7,-0.2 0.2,-0.1 0.3,-0.2 0.4,-0.3 -0.1,0.9 -0.2,1.9 -0.2,2.7 v 0.5 c 0,0.6 0,1 0,1.4 0.1,0.8 0.3,1 0.9,1 v 0 0 0 c 0.7,-0.1 1.9,-3.2 2.9,-5.9 v 0 c 0.4,-1 0.8,-2 1.1,-2.8 0.3,-0.6 0.5,-1.1 0.7,-1.6 0.7,-1.6 1,-2.6 1.7,-3 0.3,-0.3 0.6,-0.3 0.9,-0.2 v 0 c 0.3,0.2 0.7,0.6 1.1,1.3 v 0 0 c 0.1,0.2 0.2,0.5 0.4,0.8 0.1,0.4 0.3,0.8 0.5,1.3 0.8,2.5 1.7,6.2 1.9,7.6 0.1,0.8 0.2,1.4 0.4,1.8 0.1,0.2 0.3,0.4 0.4,0.5 v 0 c 0.2,0.1 0.4,0.1 0.6,0 0.2,-0.1 0.4,-0.2 0.6,-0.5 v 0 0 c 0.1,-0.2 0.2,-0.5 0.4,-0.9 0.1,-0.4 0.2,-0.9 0.2,-1.5 0.3,-3 0.3,-7.8 -0.1,-9.6 v 0 c -0.3,-1.2 -1,-2.7 -1.6,-4.2 -0.7,-1.5 -1.4,-3.1 -1.6,-4.3 -0.2,-1.1 -0.1,-1.9 0,-2.3 0,-0.1 0.1,-0.1 0.1,-0.2 0,0 0.1,0.1 0.2,0.2 0.2,0.3 0.4,0.6 0.6,0.8 0.4,0.5 0.8,0.9 1.1,2.5 v 0 0 c 0.3,1.4 0.3,2.4 0.4,3.1 0,0.6 0.1,1 0.1,1.3 0.1,0.2 0.2,0.4 0.4,0.5 0.1,0.1 0.3,0.1 0.5,0.1 0.2,0 0.4,-0.1 0.6,-0.3 0.3,-0.2 0.6,-0.7 0.8,-1.5 v 0 0 0 c 0.1,-0.3 0.1,-0.6 0.2,-1 0.1,-0.4 0.1,-0.8 0.2,-1.3 0.3,-2.5 0.3,-5.8 -0.7,-7.9 v 0 C 54.7,12.5 54.5,12.2 54.2,12 54,11.7 53.7,11.5 53.5,11.3 52.2,10.2 50.2,9.4 48.7,9 c 0,0 -0.1,0 -0.1,0 v 0 c 0,0 0,-0.1 0,-0.1 0,-0.1 0,-0.1 0,-0.2 v 0 c 0,-0.1 0.1,-0.2 0.2,-0.3 v 0 0 0 C 48.9,8.3 49,8.2 49,8.1 49.1,8 49.1,7.9 49.2,7.8 v 0 c 0.3,-0.6 0.5,-1.3 0.5,-2 v 0 0 0 C 49.7,4.7 49.3,3.7 48.6,3 47.9,2.3 47,1.9 45.9,1.9 v 0 0 0 0 c -1,0 -2,0.4 -2.7,1.1 -0.7,0.7 -1.1,1.7 -1.1,2.8 v 0 0 0 0 c 0,0.4 0.1,0.8 0.2,1.2 v 0 c 0,0 0,0.1 0.1,0.2 0.1,0.3 0.3,0.6 0.4,0.8 v 0 c 0.1,0.1 0.1,0.2 0.2,0.3 0.1,0.2 0.1,0.4 0.1,0.6 0,0.1 -0.1,0.3 -0.2,0.4 v 0 c 0,0 -0.1,0 -0.1,0.1 -0.4,0.1 -0.7,0.3 -1,0.5 -0.3,0.2 -0.6,0.5 -0.9,0.8 -0.9,1.1 -1.1,2.3 -1.4,3.6 -0.2,0.8 -0.3,1.7 -0.7,2.6 -0.5,1.2 -0.8,2.1 -1.2,2.9 -0.4,0.8 -0.7,1.3 -1.1,1.8 v 0 0 0 l -0.1,0.1 -0.1,0.1 C 36.2,22 36,22.1 35.9,22.3 v 0 c 0,0 0,-0.1 0,-0.1 v 0 c 0,-0.1 -0.1,-0.2 -0.1,-0.3 -0.2,-0.5 -0.6,-1.1 -1.2,-1.6 v 0 c -0.6,-0.6 -0.9,-1 -1.2,-1.6 -0.3,-0.6 -0.5,-1.2 -0.7,-2.2 v 0 0 0 C 32.6,16.2 32.5,15.9 32.4,15.6 32.3,15.3 32.1,15 31.9,14.7 31,13.1 29.7,11.5 29.4,11.4 v 0 C 29.3,11.4 29.2,11.3 29,11.2 28.9,11.1 28.7,11.1 28.6,11 v 0 c -0.1,0 -0.1,-0.1 -0.2,-0.1 0,0 -0.1,-0.1 -0.1,-0.2 0,-0.1 0,-0.2 0,-0.3 0.1,-0.1 0.2,-0.3 0.3,-0.4 v 0 0 0 C 28.7,9.9 28.8,9.8 28.8,9.7 28.9,9.6 28.9,9.5 29,9.4 v 0 c 0.3,-0.5 0.5,-1.2 0.5,-1.9 v 0 0 c 0,-1 -0.4,-1.8 -1,-2.4 -0.6,-0.6 -1.5,-1 -2.4,-1 v 0 0 0 0 c -0.9,0 -1.8,0.4 -2.4,1 -0.6,0.6 -1,1.5 -1,2.4 v 0 0 0 0 c 0,0.5 0.1,0.9 0.3,1.3 0,0.1 0,0.1 0.1,0.2 v 0 c 0.2,0.3 0.4,0.6 0.6,0.9 0.1,0.1 0.2,0.2 0.2,0.3 0,0 0,0 0,0 0,0 0,0 -0.1,0 -0.8,0.2 -1.5,0.5 -2.3,1 -0.7,0.6 -1.5,1.4 -2.1,2.8 -0.7,1.5 -1,3.1 -1,4.6 0,1.4 0.1,2.7 0.2,3.3 0.2,1.2 1.2,3.1 1.5,3.6 l -1.9,3.3 v 0 c 0,0 0,0.1 0,0.1 0,0.1 0,0.1 0,0.2 v 0 c 0,0 0.1,0.1 0.1,0.1 v 0 c 0,0 0.1,0 0.2,0.1 v 0 0 c 1.3,0.2 2.2,0 2.8,-0.1 z m 12.6,-1.2 v 0 c 0,0 0,0 0,0 z m 0,0 v 0 c 0,-0.1 0,-0.1 0,0 z m 5.2,5.3 c 0,-0.2 0,-0.5 0,-1 v 0 c 0,-0.2 0,-0.4 0,-0.6 0,-0.2 0,-0.4 0,-0.6 0,-1 -0.3,-2 -0.8,-2.5 v 0 0 c 0,0 -0.1,-0.1 -0.1,-0.1 v 0 c 0,0 -0.1,-0.1 -0.1,-0.1 -0.3,-0.2 -0.6,-0.3 -1,-0.5 v 0 0 c 0,0 0.1,-0.1 0.1,-0.1 v 0 0 0 c 0.1,-0.1 0.1,-0.1 0.2,-0.2 0,-0.1 0.1,-0.1 0.1,-0.2 0.2,-0.4 0.4,-0.8 0.4,-1.3 v 0 0 c 0,-0.4 -0.1,-0.8 -0.3,-1.1 v 0 c 0,0 -0.1,-0.1 -0.1,-0.2 v 0 C 37,24.6 36.8,24.4 36.5,24.2 v 0 h 0.1 v 0 0 0 0 0 c 0.1,0 0.1,-0.1 0.2,-0.1 0.1,0 0.1,-0.1 0.2,-0.1 0.4,-0.2 0.7,-0.4 1.1,-0.7 0.4,-0.3 1,-0.9 1.7,-1.6 0.6,-0.6 1.1,-1.1 1.5,-1.5 0,0.2 0,0.3 -0.1,0.5 -0.1,0.4 -0.1,0.9 -0.2,1.5 -0.1,0.9 -0.4,2.5 -0.7,4.2 -0.3,1.7 -0.7,3.4 -0.9,4.2 -0.1,0.8 -0.4,1.8 -0.6,2.8 v 0.2 c 0,0 0,-0.1 0,-0.2 z m 2.9,-13.9 v 0 c 0.1,0 0.1,0 0,0 0,0 -0.1,0 0,0 z M 15.5,45.4 c -4.7,2.5 -8.7,6.2 -8.7,6.2 L 6.6,51.8 6.4,51.5 c 0,0 -3.2,-4.8 -3.1,-5.8 C 3.4,45.1 3.7,44.8 4,44.4 4.2,44.2 4.4,44 4.4,43.8 v 0 C 4.4,43.6 4.2,43 3.9,42.3 3.5,41.4 3,40.2 2.9,39.2 v 0 0 0 C 2.9,38.7 2.8,37.8 2.7,36.8 2.5,34.6 2.2,31.7 1.9,29.7 v 0 C 1.8,28.5 1.6,28 1.4,27.5 1,27 0.7,26.4 0.7,24.3 0.7,22.1 1,21.2 1.2,20.6 1.4,20.2 1.5,20 1.6,19.6 1.7,18.8 2,16.5 2.4,14.9 2.5,14.6 2.5,14.3 2.6,14.1 2.7,13.9 2.7,13.6 2.8,13.5 v 0 0 C 3.1,12.8 4.6,10.4 5.7,8.8 5.9,8.5 6.1,8.2 6.3,8 6.5,7.8 6.6,7.6 6.7,7.5 v 0 0 0 c 0.7,-0.7 1.9,-2 1.9,-2 v 0 0 C 8.6,5.5 9.1,5 9.4,4.5 9.9,3.7 13.8,1 13.8,1 l 0.3,-0.2 0.1,0.3 c 0,0 1.1,2.4 0.4,4.8 -0.6,2.2 -2.9,3.4 -3.4,3.7 -0.1,0.4 -0.5,2 -0.8,3.3 -0.3,1.2 -1.5,2.2 -2,2.5 0.2,0.4 0.6,1.3 0.8,2.6 0.1,0.8 0,1.8 -0.1,2.8 C 9,21.7 8.9,22.6 9,23.4 v 0 0 0 c 0.1,0.3 0.1,0.5 0.2,0.6 v 0 c 0,0 0,0 0,0 0,0 0.1,0 0.1,-0.1 0.2,-0.2 0.4,-0.6 0.4,-1 v 0 c 0,-0.2 0,-0.5 0.1,-0.9 0.1,-1.5 0.3,-4.1 0.9,-5.5 v 0 0 c 0.4,-0.8 0.9,-1.8 1.5,-2.5 0.3,-0.4 0.7,-0.7 1.1,-0.9 0.4,-0.2 0.8,-0.3 1.2,-0.1 0.1,0.1 0.3,0.1 0.4,0.2 1.3,1.2 1.1,3.5 0.7,6.4 0,0.3 -0.1,0.7 -0.1,1 v 0 c -0.2,1.6 -0.1,3 0,4.4 0.2,1.4 0.5,2.7 0.9,4.3 0.7,2.8 -0.7,6.8 -1,7.7 l 5.5,4.8 0.3,0.2 -0.3,0.2 c 0.4,0 -0.7,0.7 -5.4,3.2 z"
   id="path26"
   style="fill:url(#SVGID_2_)"
   inkscape:label="path26" />
</g>

</svg>
