<svg xmlns="http://www.w3.org/2000/svg">
    <symbol viewBox="0 0 512 512" id="login">
        <path d="M344.7 238.5l-144.1-136C193.7 95.97 183.4 94.17 174.6 97.95C165.8 101.8 160.1 110.4 160.1 120V192H32.02C14.33 192 0 206.3 0 224v64c0 17.68 14.33 32 32.02 32h128.1v72c0 9.578 5.707 18.25 14.51 22.05c8.803 3.781 19.03 1.984 26-4.594l144.1-136C354.3 264.4 354.3 247.6 344.7 238.5zM416 32h-64c-17.67 0-32 14.33-32 32s14.33 32 32 32h64c17.67 0 32 14.33 32 32v256c0 17.67-14.33 32-32 32h-64c-17.67 0-32 14.33-32 32s14.33 32 32 32h64c53.02 0 96-42.98 96-96V128C512 74.98 469 32 416 32z"/>
    </symbol>
    <symbol viewBox="0 0 512 512" id="logout">
        <path d="M96 480h64C177.7 480 192 465.7 192 448S177.7 416 160 416H96c-17.67 0-32-14.33-32-32V128c0-17.67 14.33-32 32-32h64C177.7 96 192 81.67 192 64S177.7 32 160 32H96C42.98 32 0 74.98 0 128v256C0 437 42.98 480 96 480zM504.8 238.5l-144.1-136c-6.975-6.578-17.2-8.375-26-4.594c-8.803 3.797-14.51 12.47-14.51 22.05l-.0918 72l-128-.001c-17.69 0-32.02 14.33-32.02 32v64c0 17.67 14.34 32 32.02 32l128 .001l.0918 71.1c0 9.578 5.707 18.25 14.51 22.05c8.803 3.781 19.03 1.984 26-4.594l144.1-136C514.4 264.4 514.4 247.6 504.8 238.5z"/>
    </symbol>
    <symbol viewBox="0 0 512 512" id="letter">
        <path d="M464 64C490.5 64 512 85.49 512 112C512 127.1 504.9 141.3 492.8 150.4L275.2 313.6C263.8 322.1 248.2 322.1 236.8 313.6L19.2 150.4C7.113 141.3 0 127.1 0 112C0 85.49 21.49 64 48 64H464zM217.6 339.2C240.4 356.3 271.6 356.3 294.4 339.2L512 176V384C512 419.3 483.3 448 448 448H64C28.65 448 0 419.3 0 384V176L217.6 339.2z"/>
    </symbol>
    <symbol viewBox="0 0 512 512" id="info">
        <path d="M256 0C114.6 0 0 114.6 0 256s114.6 256 256 256s256-114.6 256-256S397.4 0 256 0zM256 128c17.67 0 32 14.33 32 32c0 17.67-14.33 32-32 32S224 177.7 224 160C224 142.3 238.3 128 256 128zM296 384h-80C202.8 384 192 373.3 192 360s10.75-24 24-24h16v-64H224c-13.25 0-24-10.75-24-24S210.8 224 224 224h32c13.25 0 24 10.75 24 24v88h16c13.25 0 24 10.75 24 24S309.3 384 296 384z"/>
    </symbol>
    <symbol viewBox="0 0 512 512" id="check">
        <path d="M0 256C0 114.6 114.6 0 256 0C397.4 0 512 114.6 512 256C512 397.4 397.4 512 256 512C114.6 512 0 397.4 0 256zM371.8 211.8C382.7 200.9 382.7 183.1 371.8 172.2C360.9 161.3 343.1 161.3 332.2 172.2L224 280.4L179.8 236.2C168.9 225.3 151.1 225.3 140.2 236.2C129.3 247.1 129.3 264.9 140.2 275.8L204.2 339.8C215.1 350.7 232.9 350.7 243.8 339.8L371.8 211.8z"/>
    </symbol>
    <symbol id="news" viewBox="0 0 16 16">
        <path d="M0 2.5A1.5 1.5 0 0 1 1.5 1h11A1.5 1.5 0 0 1 14 2.5v10.528c0 .3-.05.654-.238.972h.738a.5.5 0 0 0 .5-.5v-9a.5.5 0 0 1 1 0v9a1.5 1.5 0 0 1-1.5 1.5H1.497A1.497 1.497 0 0 1 0 13.5v-11zM12 14c.37 0 .654-.211.853-.441.092-.106.147-.279.147-.531V2.5a.5.5 0 0 0-.5-.5h-11a.5.5 0 0 0-.5.5v11c0 .278.223.5.497.5H12z"/>
        <path d="M2 3h10v2H2V3zm0 3h4v3H2V6zm0 4h4v1H2v-1zm0 2h4v1H2v-1zm5-6h2v1H7V6zm3 0h2v1h-2V6zM7 8h2v1H7V8zm3 0h2v1h-2V8zm-3 2h2v1H7v-1zm3 0h2v1h-2v-1zm-3 2h2v1H7v-1zm3 0h2v1h-2v-1z"/>
    </symbol>
    <symbol id="gifts" viewBox="0 0 640 512">
        <path d="M192.5 55.09L217.9 36.59C228.6 28.79 243.6 31.16 251.4 41.88C259.2 52.6 256.8 67.61 246.1 75.41L217.8 95.1H240C256.9 95.1 271.7 104.7 280.3 117.9C257.3 135.7 241.9 162.1 240.2 193.1C212.5 201 192 226.1 192 256V480C192 491.7 195.1 502.6 200.6 512H48C21.49 512 0 490.5 0 464V144C0 117.5 21.49 96 48 96H70.2L41.88 75.41C31.16 67.61 28.79 52.6 36.59 41.88C44.39 31.16 59.4 28.79 70.12 36.59L97.55 56.54L89.23 31.59C85.04 19.01 91.84 5.423 104.4 1.232C116.1-2.96 130.6 3.836 134.8 16.41L144.7 46.17L155.4 15.99C159.8 3.493 173.5-3.048 186 1.377C198.5 5.802 205 19.52 200.6 32.01L192.5 55.09zM344.2 127.1C366.6 127.1 387.8 138.4 401.5 156.2L432 195.8L462.5 156.2C476.2 138.4 497.4 127.1 519.8 127.1C559.5 127.1 592 160.1 592 199.1C592 208.4 590.6 216.5 587.9 223.1H592C618.5 223.1 640 245.5 640 271.1V352H448V255.1H416V352H224V271.1C224 245.5 245.5 223.1 272 223.1H276.1C273.4 216.5 272 208.4 272 199.1C272 160.1 304.5 127.1 344.2 127.1H344.2zM363.5 185.5C358.9 179.5 351.7 175.1 344.2 175.1C330.8 175.1 320 186.9 320 199.1C320 213.3 330.7 223.1 344 223.1H393.1L363.5 185.5zM519.8 175.1C512.3 175.1 505.1 179.5 500.5 185.5L470.9 223.1H520C533.3 223.1 544 213.3 544 199.1C544 186.9 533.2 175.1 519.8 175.1H519.8zM224 464V384H416V512H272C245.5 512 224 490.5 224 464zM448 512V384H640V464C640 490.5 618.5 512 592 512H448z"/>
    </symbol>
    <symbol id="university" viewBox="0 0 640 512">
        <path d="M623.1 136.9l-282.7-101.2c-13.73-4.91-28.7-4.91-42.43 0L16.05 136.9C6.438 140.4 0 149.6 0 160s6.438 19.65 16.05 23.09L76.07 204.6c-11.89 15.8-20.26 34.16-24.55 53.95C40.05 263.4 32 274.8 32 288c0 9.953 4.814 18.49 11.94 24.36l-24.83 149C17.48 471.1 25 480 34.89 480H93.11c9.887 0 17.41-8.879 15.78-18.63l-24.83-149C91.19 306.5 96 297.1 96 288c0-10.29-5.174-19.03-12.72-24.89c4.252-17.76 12.88-33.82 24.94-47.03l190.6 68.23c13.73 4.91 28.7 4.91 42.43 0l282.7-101.2C633.6 179.6 640 170.4 640 160S633.6 140.4 623.1 136.9zM351.1 314.4C341.7 318.1 330.9 320 320 320c-10.92 0-21.69-1.867-32-5.555L142.8 262.5L128 405.3C128 446.6 213.1 480 320 480c105.1 0 192-33.4 192-74.67l-14.78-142.9L351.1 314.4z"/>
    </symbol>
    <symbol id="reference" viewBox="0 0 384 512">
        <path d="M256 0v128h128L256 0zM288 256H96v64h192V256zM224 128L224 0H48C21.49 0 0 21.49 0 48v416C0 490.5 21.49 512 48 512h288c26.51 0 48-21.49 48-48V160h-127.1C238.3 160 224 145.7 224 128zM64 72C64 67.63 67.63 64 72 64h80C156.4 64 160 67.63 160 72v16C160 92.38 156.4 96 152 96h-80C67.63 96 64 92.38 64 88V72zM64 136C64 131.6 67.63 128 72 128h80C156.4 128 160 131.6 160 136v16C160 156.4 156.4 160 152 160h-80C67.63 160 64 156.4 64 152V136zM320 440c0 4.375-3.625 8-8 8h-80C227.6 448 224 444.4 224 440v-16c0-4.375 3.625-8 8-8h80c4.375 0 8 3.625 8 8V440zM320 240v96c0 8.875-7.125 16-16 16h-224C71.13 352 64 344.9 64 336v-96C64 231.1 71.13 224 80 224h224C312.9 224 320 231.1 320 240z"/>
    </symbol>
    <symbol id="vacation" viewBox="0 0 640 512">
        <path d="M115.4 136.8l102.1 37.35c35.13-81.62 86.25-144.4 139-173.7c-95.88-4.875-188.8 36.96-248.5 111.7C101.2 120.6 105.2 133.2 115.4 136.8zM247.6 185l238.5 86.87c35.75-121.4 18.62-231.6-42.63-253.9c-7.375-2.625-15.12-4.062-23.12-4.062C362.4 13.88 292.1 83.13 247.6 185zM521.5 60.51c6.25 16.25 10.75 34.62 13.13 55.25c5.75 49.87-1.376 108.1-18.88 166.9l102.6 37.37c10.13 3.75 21.25-3.375 21.5-14.12C642.3 210.1 598 118.4 521.5 60.51zM528 448h-207l65-178.5l-60.13-21.87l-72.88 200.4H48C21.49 448 0 469.5 0 496C0 504.8 7.163 512 16 512h544c8.837 0 16-7.163 16-15.1C576 469.5 554.5 448 528 448z"/>
    </symbol>
    <symbol id="add_user" viewBox="0 0 640 512">
        <path d="M224 256c70.7 0 128-57.31 128-128S294.7 0 224 0C153.3 0 96 57.31 96 128S153.3 256 224 256zM274.7 304H173.3C77.61 304 0 381.6 0 477.3C0 496.5 15.52 512 34.66 512h378.7C432.5 512 448 496.5 448 477.3C448 381.6 370.4 304 274.7 304zM616 200h-48v-48C568 138.8 557.3 128 544 128s-24 10.75-24 24v48h-48C458.8 200 448 210.8 448 224s10.75 24 24 24h48v48C520 309.3 530.8 320 544 320s24-10.75 24-24v-48h48C629.3 248 640 237.3 640 224S629.3 200 616 200z"/>
    </symbol>
</svg>