<svg xmlns="http://www.w3.org/2000/svg">
    <symbol id="like" viewBox="0 0 16 16">
        <path d="m8 2.748-.717-.737C5.6.281 2.514.878 1.4 3.053c-.523 1.023-.641 2.5.314 4.385.92 1.815 2.834 3.989 6.286 6.357 3.452-2.368 5.365-4.542 6.286-6.357.955-1.886.838-3.362.314-4.385C13.486.878 10.4.28 8.717 2.01L8 2.748zM8 15C-7.333 4.868 3.279-3.04 7.824 1.143c.06.055.119.112.176.171a3.12 3.12 0 0 1 .176-.17C12.72-3.042 23.333 4.867 8 15z"/>
    </symbol>
    <symbol id="dislike" viewBox="0 0 16 16">
        <path fill-rule="evenodd" d="M8 1.314C12.438-3.248 23.534 4.735 8 15-7.534 4.736 3.562-3.248 8 1.314z"/>
    </symbol>
    <symbol id="comment" viewBox="0 0 16 16">
        <path d="M14 1a1 1 0 0 1 1 1v8a1 1 0 0 1-1 1H4.414A2 2 0 0 0 3 11.586l-2 2V2a1 1 0 0 1 1-1h12zM2 0a2 2 0 0 0-2 2v12.793a.5.5 0 0 0 .854.353l2.853-2.853A1 1 0 0 1 4.414 12H14a2 2 0 0 0 2-2V2a2 2 0 0 0-2-2H2z"/>
        <path d="M5 6a1 1 0 1 1-2 0 1 1 0 0 1 2 0zm4 0a1 1 0 1 1-2 0 1 1 0 0 1 2 0zm4 0a1 1 0 1 1-2 0 1 1 0 0 1 2 0z"/>
    </symbol>
    <symbol id="comment_fill" viewBox="0 0 16 16">
       <path d="M0 2a2 2 0 0 1 2-2h12a2 2 0 0 1 2 2v8a2 2 0 0 1-2 2H4.414a1 1 0 0 0-.707.293L.854 15.146A.5.5 0 0 1 0 14.793V2zm5 4a1 1 0 1 0-2 0 1 1 0 0 0 2 0zm4 0a1 1 0 1 0-2 0 1 1 0 0 0 2 0zm3 1a1 1 0 1 0 0-2 1 1 0 0 0 0 2z"/>
    </symbol>
    <symbol id="add_user" viewBox="0 0 640 512">
        <path d="M224 256c70.7 0 128-57.31 128-128S294.7 0 224 0C153.3 0 96 57.31 96 128S153.3 256 224 256zM274.7 304H173.3C77.61 304 0 381.6 0 477.3C0 496.5 15.52 512 34.66 512h378.7C432.5 512 448 496.5 448 477.3C448 381.6 370.4 304 274.7 304zM616 200h-48v-48C568 138.8 557.3 128 544 128s-24 10.75-24 24v48h-48C458.8 200 448 210.8 448 224s10.75 24 24 24h48v48C520 309.3 530.8 320 544 320s24-10.75 24-24v-48h48C629.3 248 640 237.3 640 224S629.3 200 616 200z"/>
    </symbol>
    <symbol id="right" viewBox="0 0 512 512">
        <path d="M52.51 440.6l171.5-142.9V214.3L52.51 71.41C31.88 54.28 0 68.66 0 96.03v319.9C0 443.3 31.88 457.7 52.51 440.6zM308.5 440.6l192-159.1c15.25-12.87 15.25-36.37 0-49.24l-192-159.1c-20.63-17.12-52.51-2.749-52.51 24.62v319.9C256 443.3 287.9 457.7 308.5 440.6z"/>
    </symbol>
    <symbol id="left" viewBox="0 0 512 512">
        <path d="M459.5 71.41l-171.5 142.9v83.45l171.5 142.9C480.1 457.7 512 443.3 512 415.1V96.03C512 68.66 480.1 54.28 459.5 71.41zM203.5 71.41L11.44 231.4c-15.25 12.87-15.25 36.37 0 49.24l192 159.1c20.63 17.12 52.51 2.749 52.51-24.62v-319.9C255.1 68.66 224.1 54.28 203.5 71.41z"/>
    </symbol>
    <symbol id="stop" viewBox="0 0 384 512">
        <path d="M384 128v255.1c0 35.35-28.65 64-64 64H64c-35.35 0-64-28.65-64-64V128c0-35.35 28.65-64 64-64H320C355.3 64 384 92.65 384 128z"/>
    </symbol>
</svg>